<?xml version="1.0" standalone="no"?>
<!DOCTYPE svg PUBLIC "-//W3C//DTD SVG 1.1//EN" "http://www.w3.org/Graphics/SVG/1.1/DTD/svg11.dtd" >
<!--
2013-9-30: Created.
-->
<svg>
<metadata>
Created by iconfont
</metadata>
<defs>

<font id="iconfont" horiz-adv-x="1024" >
  <font-face
    font-family="iconfont"
    font-weight="500"
    font-stretch="normal"
    units-per-em="1024"
    ascent="896"
    descent="-128"
  />
    <missing-glyph />
    
    <glyph glyph-name="dingwei1" unicode="&#58977;" d="M183.458816 404.827904c0 189.41952 146.182144 342.864896 331.737088 342.864896 185.568256 0 340.33152-153.445376 340.33152-342.864896 0-189.43488-340.33152-553.214976-340.33152-553.214976S183.458816 215.394048 183.458816 404.827904M427.88864 478.869248c0 49.540096 40.958976 89.611264 91.604992 89.611264 50.658304 0 91.604992-40.071168 91.604992-89.611264 0-49.527808-40.946688-89.598976-91.604992-89.598976C468.847616 389.271296 427.88864 429.342464 427.88864 478.869248"  horiz-adv-x="1024" />

    
    <glyph glyph-name="naiping" unicode="&#58880;" d="M762.420224 336.232192 545.85856 541.119232c-32.899072 31.087616-84.733952 29.672448-115.7888-3.161088l-294.67648-311.455744c-31.087616-32.866304-29.638656-84.634624 3.227648-115.7888l216.56064-204.903424c32.866304-31.087616 84.734976-29.638656 115.85536 3.226624L765.647872 220.442368C796.70272 253.243136 795.286528 305.144576 762.420224 336.232192zM461.915136-39.12832c-26.510336-27.992064-69.716992-30.166016-96.589824-4.742144L188.315648 123.623168c-26.872832 25.422848-27.103232 68.629504-0.592896 96.688128l34.348032 36.35712 121.157632-114.668544 41.659392 44.06272L263.730176 300.6656l35.336192 37.34528 121.12384-114.603008 41.659392 43.997184L340.691968 382.0736l34.44736 36.35712 121.124864-114.669568 41.659392 44.06272L416.764928 462.427904l22.32832 23.579648c26.543104 28.041216 69.783552 30.215168 96.622592 4.80768L712.758272 323.322624c26.840064-25.358336 27.070464-68.697088 0.592896-96.754688L461.915136-39.12832zM880.745472 525.542144l-15.31392 14.490624 31.219712 32.9984c29.145088 30.824448 27.828224 79.415296-2.997248 108.560384-30.790656 29.161472-79.43168 27.810816-108.544-3.013632l-31.25248-32.9984-15.31392 14.523392c-32.832512 31.087616-84.733952 29.671424-115.821568-3.211264l-1.284096-1.36704c-31.121408-32.866304-29.672448-84.6848 3.161088-115.7888L766.866432 405.125888c32.899072-31.087616 84.701184-29.638656 115.7888 3.227648l1.316864 1.383424C915.093504 442.603264 913.644544 494.454528 880.745472 525.542144z"  horiz-adv-x="1024" />

    
    <glyph glyph-name="buzhujiabaomu" unicode="&#59022;" d="M972.986 784.706 40.206 779.423c0 0-32.74-19.45-31.623-68.578 5.107-223.557 52.704-854.549 52.704-854.549s6.569-41.604 52.698-47.472c98.245-12.48 279.304 0 279.304 0L393.289 19.82l231.885 0 0-89.674 0-121.322 289.845 0c0 0 35.179 15.146 42.153 79.119 26.26 240.616 57.967 838.729 57.967 838.729S1025.685 784.706 972.986 784.706zM329.304 99.418 209.059 99.418l0 163.42 120.245 0L329.304 99.418 329.304 99.418zM329.304 488.218l0-159.625 0-3.783L209.059 324.81l0 3.783L209.059 488.218l0 3.794 120.245 0L329.304 488.218 329.304 488.218zM329.304 553.984 209.059 553.984 209.059 717.387l120.245 0L329.304 553.984 329.304 553.984zM491.366 99.418l-120.24 0 0 163.42 120.24 0L491.366 99.418zM491.366 488.218l0-159.625 0-3.783-120.24 0 0 3.783L371.126 488.218l0 3.794 120.24 0L491.366 488.218zM491.366 553.984l-120.24 0L371.126 717.387l120.24 0L491.366 553.984zM653.434 99.418 533.188 99.418l0 163.42 120.246 0L653.434 99.418 653.434 99.418zM653.434 488.218l0-159.625 0-3.783L533.188 324.81l0 3.783L533.188 488.218l0 3.794 120.246 0L653.434 488.218 653.434 488.218zM653.434 553.984 533.188 553.984 533.188 717.387l120.246 0L653.434 553.984 653.434 553.984zM815.495 99.418 695.25 99.418l0 163.42 120.245 0L815.495 99.418zM815.495 488.218l0-159.625 0-3.783L695.25 324.81l0 3.783L695.25 488.218l0 3.794 120.245 0L815.495 488.218zM815.495 553.984 695.25 553.984 695.25 717.387l120.245 0L815.495 553.984z"  horiz-adv-x="1024" />

    
    <glyph glyph-name="yiguoqi" unicode="&#58991;" d="M227.154533 368.607428c-23.375383 5.718235-31.907711 19.342534-25.575492 40.893362l24.286126 90.635253 30.212092-8.095375-4.774747-17.816784 91.410919-24.493857 9.963932 37.183877-127.044488 34.042327 7.265474 27.113521 157.25658-42.136679-24.493857-91.409896-121.623012 32.588209-10.17064-37.95852c-3.289929-10.197246 0.298805-16.412808 10.775414-18.662035l73.593112-19.718087c12.115945-4.363378 20.137643-1.245364 24.085558 9.320273 0.551562 2.058892 2.029216 5.541203 4.455475 10.43056 2.169409 6.061043 3.935636 10.56973 5.285377 13.529131 10.015098-6.004761 19.125593-11.222599 27.362184-15.634072-4.869914-11.979846-9.731642-22.857591-14.556531-32.631188-7.249101-14.663978-21.394263-18.891256-42.427298-12.709463L227.154533 368.607428zM399.750473 314.057021l-2.542916 33.892925c1.963725 1.133823 4.840238 2.568499 8.632611 4.327562 2.7486 2.02717 8.841366 5.104251 18.247596 9.227152l12.246929 45.704948-20.914332 5.604648 7.264451 27.113521 48.802496-13.07683-19.511379-72.817446c5.039783-16.297175 15.888875-26.40437 32.562627-30.3134 26.707268-7.714705 60.537771-16.779152 101.481276-27.191292-5.03876-6.407943-10.162454-14.155395-15.371082-23.281239-27.888164 7.472182-47.77612 12.801561-59.649542 15.98302-14.845103 4.536316-28.383444 8.720615-40.641629 12.551874-19.633153 5.260817-32.873712 15.735379-39.74112 31.405267-2.623757-1.515516-6.227842-3.585665-10.80509-6.239098C409.330666 320.90908 402.638243 316.605054 399.750473 314.057021zM458.69291 441.071833c-4.15053 15.498996-8.820899 31.137161-13.995759 46.924729l27.126824 5.185093c5.976108-14.886035 11.429307-29.631878 16.374946-44.240597L458.69291 441.071833zM501.016855 366.630401c-3.232624 8.610098-8.025791 20.688181-14.370289 36.231179-1.760087 3.792373-2.939959 6.599302-3.553942 8.423857l24.859177 9.114588c7.525394-15.301498 14.411221-29.885658 20.663622-43.729967L501.016855 366.630401zM486.732523 431.069015l6.642281 24.789593 69.719898-18.681478 8.095375 30.211069 29.437449-7.887644-8.095375-30.211069 24.01495-6.435573-6.642281-24.789593-24.01495 6.435573-15.567557-58.099233c-5.061272-23.008017-18.500353-31.861662-40.326451-26.557866-7.378038 1.419326-18.800181 4.206812-34.294061 8.358365 1.493004 11.769045 1.914606 21.61939 1.276063 29.547966 9.156544-3.009544 18.383696-5.756097 27.679409-8.246825 10.18599-3.28686 16.080234 0.115634 17.680684 10.208503l14.114462 52.676733L486.732523 431.069015zM644.432195 404.587897l6.226818 23.239284 10.070356-2.698458 4.151553 15.493879 26.337855-7.05672-4.151553-15.493879 26.338878-7.057743 4.359284 16.267499 26.337855-7.05672-4.359284-16.267499 10.070356-2.698458-6.226818-23.23826-10.070356 2.698458-20.964474-78.241992 13.169951-3.52836-2.90619-10.846022c4.176113 9.389858 8.271384 21.577434 12.286838 36.561707l23.040762 85.987397 74.368778-19.927865-41.513486-154.932652c-3.596921-13.422707-11.998265-18.916838-25.179472-16.500812-2.069125 0.554632-6.197142 1.660826-12.393261 3.320629-7.374968 1.431605-12.603039 2.545986-15.70161 3.37691 1.355881 11.260461 1.954515 19.688411 1.786693 25.261337 6.197142-1.660826 11.619642-3.113921 16.267499-4.359284 6.566556-2.317789 10.426467-0.302899 11.577686 6.030343l6.227842 23.240307-23.240307 6.227842c-8.955976-23.067368-21.960151-40.612976-39.015595-52.648081-3.921309 6.033413-8.420787 11.948123-13.512758 17.735943l-16.075117-7.316639c-4.468778 12.276604-9.955746 24.813129-16.486486 37.629016l18.6078 7.468089-36.409235 9.756201 13.927197-16.185634c-13.657045-9.625218-26.113751-17.911952-37.379329-24.856108-4.028757 7.721869-9.142218 15.46011-15.366989 23.214724 11.370978 5.255701 21.978571 11.819187 31.846312 19.695574l-25.563212 6.850012 6.226818 23.239284 12.394285-3.320629 20.964474 78.239945L644.432195 404.587897zM663.196561 328.986035l-3.320629-12.394285 26.338878-7.057743 3.320629 12.395308L663.196561 328.986035zM671.914106 361.522056l-3.320629-12.394285 26.338878-7.057743 3.320629 12.395308L671.914106 361.522056zM680.840406 394.831696l-3.320629-12.394285 26.337855-7.05672 3.321652 12.394285L680.840406 394.831696zM702.685947 259.455449c5.26798 5.230118 9.840112 10.9197 13.710256 17.083074l-26.337855 7.05672C694.315302 274.697595 698.519044 266.656455 702.685947 259.455449zM760.25306 316.265316c-0.830925-3.098571-1.660826-6.198166-2.491751-9.295714l22.464641-6.02011 6.02011 22.464641-22.464641 6.02011L760.25306 316.265316zM776.650519 377.46312l-6.226818-23.240307 22.464641-6.02011 6.226818 23.240307L776.650519 377.46312zM512 598.642568c70.719668 0 133.443221-34.206056 172.547845-86.968747l27.357068-7.329942c-40.839127 67.693752-115.083062 112.963795-199.904912 112.963795-40.980343 0-79.483262-10.578939-112.952538-29.134551l27.304879-7.316639C452.590935 592.287837 481.551524 598.642568 512 598.642568zM652.945079 610.783073l14.980179-12.141528 4.617158 18.197454 16.767895 9.79918-16.767895 9.79918-4.617158 18.197454-14.980179-12.143575-19.62599 1.450025 7.512091-17.304108-7.512091-17.302061L652.945079 610.783073zM393.037585 651.50759l-15.410991 10.724249-3.363607-18.987447-15.775288-11.762905 17.012466-8.15268 5.656837-17.994839 13.879102 13.951757 19.272949 0.64059-8.43409 16.774035 6.252401 18.391882L393.037585 651.50759zM537.309432 677.742091l-11.42112 14.901385-8.977465-17.066701-18.602683-6.411013 13.727653-12.936637-0.076748-18.86465 17.460674 9.072633 18.556635-5.246491-2.935865 18.543332 11.545964 15.618723L537.309432 677.742091zM746.131435 560.559205l-16.180518 11.200086-2.301416-18.724457-15.247262-11.101849 17.648962-8.703219 6.754844-18.063401 13.204743 13.34289 19.424398-0.059352-9.485025 16.951067 5.248537 18.026562L746.131435 560.559205zM956.288852 419.535331 145.002488 636.921383c-19.913539 5.334495-40.380686-6.483668-45.719274-26.397207L41.315988 394.181897c-5.334495-19.913539 6.482645-40.382733 26.39516-45.719274l811.286364-217.381959c19.913539-5.336542 40.382733 6.480598 45.719274 26.39516l57.966203 216.34228C988.020554 393.731642 976.202391 414.200836 956.288852 419.535331zM962.239378 369.633804l-53.136198-198.312648c-4.003174-14.935154-19.354813-23.799032-34.288944-19.797905L81.556481 364.075205c-14.935154 4.003174-23.796986 19.354813-19.797905 34.288944l53.140291 198.316741c4.000104 14.935154 19.352767 23.796986 34.288944 19.795858l793.255709-212.551954C957.378673 399.922644 966.242552 384.568958 962.239378 369.633804zM512 719.961658c155.48012 0 286.266839-105.624642 324.580446-249.025657l20.653389-5.53404c-36.787858 156.61906-177.391153 273.223778-345.232812 273.223778-101.768825 0-193.520505-42.872436-258.192434-111.537306l20.632923-5.528923C335.237157 682.358225 419.22706 719.961658 512 719.961658zM597.648682 187.14454c-26.239618-11.432377-55.200206-17.786085-85.648682-17.786085-70.718645 0-133.443221 34.206056-172.548868 86.970794l-27.358091 7.330966c40.839127-67.694775 115.083062-112.965841 199.906959-112.965841 40.980343 0 79.484286 10.578939 112.953561 29.134551L597.648682 187.14454zM397.395846 148.391934l-14.860453 12.114922-4.578272-18.156522-16.633842-9.774621 16.633842-9.776667 4.578272-18.155499 14.860453 12.112875 19.463284-1.444908-7.450692 17.263176 7.450692 17.263176L397.395846 148.391934zM511.941672 90.903615l11.328-14.868639 8.904811 17.027815 18.451234 6.39464-13.617136 12.906961 0.078795 18.819624-17.318434-9.05012-18.407232 5.235235 2.911306-18.500353-11.450796-15.582907L511.941672 90.903615zM276.004101 208.219531l15.21861-12.281721 3.594875 18.472723 15.868409 9.981329-16.84669 9.897418-5.412266 18.448164-14.005992-12.354376-19.215644 1.420349 8.18952-17.533328-6.463202-17.569144L276.004101 208.219531zM512 48.038342c-155.479097 0-286.267862 105.625666-324.580446 249.02668l-20.653389 5.53404c36.786835-156.61906 177.391153-273.225825 345.233835-273.225825 101.768825 0 193.521528 42.872436 258.193457 111.537306l-20.6319 5.5279C688.763866 85.641775 604.773963 48.038342 512 48.038342zM646.923946 116.524133l15.312754-10.715039 3.302209 18.929118 15.635095 11.704576-16.898879 8.15268-5.65172 17.951861-13.746072-13.892405-19.125593-0.611937 8.401344-16.736173-6.166443-18.328437L646.923946 116.524133z"  horiz-adv-x="1024" />

    
    <glyph glyph-name="weixin" unicode="&#58996;" d="M571.600896 300.166912c-10.99776 0-21.00224-9.00096-21.00224-21.00224 0-8.00768 10.00448-19.00544 21.00224-19.00544 15.0016 0 25.99936 10.00448 25.99936 19.00544C597.600256 291.165952 586.602496 300.166912 571.600896 300.166912L571.600896 300.166912zM504.600576 398.163712c15.99488 0 25.99936 9.99424 25.99936 25.99936 4.99712 33.00352-56.00256 33.00352-56.00256 0 0-13.0048 7.00416-22.00576 22.00576-25.00608C499.593216 398.163712 502.593536 398.163712 504.600576 398.163712L504.600576 398.163712zM512.598016 745.166592c-246.99904 0.99328-444.99968-201.00096-446.0032-444.99968 0-164.00384 89.00608-307.00544 220.99968-385.00352 164.00384-103.99744 412.99968-68.99712 540.0064 70.00064 106.99776 106.99776 157.99296 274.00192 114.00192 432.9984C889.593856 608.165632 718.596096 745.166592 512.598016 745.166592L512.598016 745.166592zM428.599296 187.158272c-25.00608 0-44.00128 4.00384-71.99744 12.00128l-73.00096-36.99712 21.00224 62.0032c-55.00928 38.99392-82.00192 84.992-82.00192 137.99424 0 48.9984 19.99872 89.99936 59.99616 123.00288 39.99744 33.9968 88.99584 50.9952 146.00192 50.9952 99.9936 0 190.0032-58.99264 205.99808-143.99488-7.00416 1.9968-12.99456 3.00032-18.9952 3.00032-98.00704 0-175.0016-76.00128-175.0016-164.00384 0-15.0016 1.9968-27.99616 6.00064-42.99776-2.00704-1.00352-4.00384-1.00352-6.00064-1.00352l-6.00064 0L428.599296 187.158272zM730.597376 116.164352l15.0016-51.99872-54.99904 30.99648c-35.00032-7.00416-56.00256-10.99776-63.00672-10.99776-96.99328 0-173.99808 67.00032-173.99808 149.00224 0 41.99424 16.9984 76.99456 50.00192 105.99424 33.9968 28.99968 74.99776 44.00128 123.99616 44.00128 92.0064 0 175.0016-67.00032 175.0016-149.99552C802.594816 189.165312 774.598656 148.164352 730.597376 116.164352L730.597376 116.164352zM360.595456 449.158912c-15.99488 0-30.99648-9.99424-30.99648-24.99584 0-16.00512 15.99488-25.99936 30.99648-25.99936s25.99936 9.99424 25.99936 25.99936C383.594496 439.164672 374.593536 447.162112 360.595456 449.158912L360.595456 449.158912zM685.602816 300.166912c-12.00128 0-21.00224-9.00096-21.00224-21.00224 0-9.00096 9.99424-19.00544 21.00224-19.00544 12.99456 0 24.99584 10.00448 24.99584 19.00544C705.601536 290.162432 697.593856 297.166592 685.602816 300.166912z"  horiz-adv-x="1024" />

    
    <glyph glyph-name="jiazheng" unicode="&#58896;" d="M530.29165739 569.62123207l154.34244551-117.10596096 0-259.10687858c0-12.97839673-10.54967694-23.50013099-23.5141029-23.50013098l-101.39729237 0c15.99392085 17.55407701 41.94955037 45.89767566 50.62937031 54.56818062 9.43428267 9.44825458 40.75614777 43.04398791 47.26572145 79.081249 3.8270373 21.25537053-1.79184981 43.03350898-15.4490311 59.75278592-13.98085518 17.10116523-34.54463431 26.81953621-57.87245 27.34230528-22.73751837 0.46455353-41.57464803-8.82768555-54.00466204-17.51332637-12.10401109 8.45976803-30.22044274 17.52613319-52.26753366 17.52613319l-1.73596444-0.01280682c-23.35808739-0.53673984-43.90673067-10.24113891-57.88758585-27.34230528-13.65601621-16.70647011-19.27606841-38.48111559-15.43389525-59.73765007 6.49443783-36.05356089 37.81746802-69.66443008 47.26572146-79.08241294 8.67981995-8.68913379 34.63777735-37.03040455 50.63286328-54.58331648L399.46447986 169.90709760000004c-12.96442595 0-23.51526685 10.52057031-23.51526685 23.50013099L375.94921187 452.51410717 530.29165739 569.62123207zM608.10498845 335.47567559000004c-4.03893931 4.94476061-11.6080219 10.88965177-24.78434874 11.18538297l-0.77774961 0c-19.67192974 0-35.75666574-16.86248562-35.92665202-17.04760775-4.14838329-4.61875883-10.09793138-7.28615822-16.32458069-7.28615822-6.22897835 0-12.15756857 2.65459257-16.33971656 7.28615822-0.05705045 0.04307854-16.05562823 17.03363698-35.92665201 17.03363698l-0.77658453 0c-13.17632683-0.29689515-20.73260146-6.24411421-24.76804893-11.18654692-5.50944427-6.75058233-7.76817664-15.52005347-6.21500643-24.09042944 3.16338973-17.47024782 19.8849957-40.60129735 35.0802102-55.78253994 8.76947001-8.76830606 32.63519061-34.7681792 48.94696448-52.66222991 16.29780195 17.90802261 40.17865842 43.89392384 48.93415652 52.66222991 15.19405056 15.19521451 31.94592711 38.34023595 35.07788117 55.7976758C615.85686528 319.95562211000004 613.58299705 328.74139306999996 608.10498845 335.47567559000004zM1018.73438947 388.65718045c0-279.22007495-226.35176505-505.57184114-505.57067605-505.57184114-279.22007495 0-505.57184114 226.35176505-505.57184113 505.57184114s226.35176505 505.57184114 505.57184113 505.57184113C792.38262329 894.22902045 1018.73438947 667.87725539 1018.73438947 388.65718045zM785.53656889 431.19702813L543.59605703 614.7586218700001c-7.86714169 5.97283385-18.72535779 5.97283385-26.59249948 0L275.04674589 431.19702813c-9.67412736-7.35834453-11.58124317-21.15524153-4.23686941-30.8293689 7.35834453-9.68693533 21.17037739-11.58124317 30.82936889-4.2368694l30.32057173 23.00646969 0-225.74167495c0-37.21319879 30.27632811-67.5058267 67.50466276-67.5058267l261.65435619 0c37.22600562 0 67.50466275 30.29379299 67.50466276 67.51863466L728.62349767 419.13726066l30.32173568-23.00646969c3.96791808-2.99456739 8.64139833-4.46274333 13.27529188-4.46274332 6.6481243 0 13.21824142 3.00853817 17.55174798 8.69961272C797.10151111 410.04178773 795.22466816 423.83868359 785.53656889 431.19702813z"  horiz-adv-x="1024" />

    
    <glyph glyph-name="dot1" unicode="&#58988;" d="M511.705799 300.254803m-191.882192 0a187.512 187.512 0 1 0 383.764384 0 187.512 187.512 0 1 0-383.764384 0Z"  horiz-adv-x="1024" />

    
    <glyph glyph-name="shoujiyanzheng" unicode="&#58993;" d="M740.968944 896 314.832298 896C257.590062 896 206.708075 845.118012 206.708075 781.515528l0-795.031056c0-63.602484 50.881988-114.484472 114.484472-114.484472l426.136646 0c63.602484 0 114.484472 50.881988 114.484472 114.484472L861.813665 781.515528C855.453416 845.118012 804.571429 896 740.968944 896zM810.931677-7.15528c0-38.161491-31.801242-69.962733-69.962733-69.962733L314.832298-77.118012c-38.161491 0-69.962733 31.801242-69.962733 69.962733L244.869565 781.515528c0 38.161491 31.801242 69.962733 69.962733 69.962733l426.136646 0c38.161491 0 69.962733-31.801242 69.962733-69.962733L810.931677-7.15528zM702.807453 781.515528 359.354037 781.515528C340.273292 781.515528 327.552795 768.795031 327.552795 749.714286l0-585.142857c0-19.080745 12.720497-31.801242 31.801242-31.801242L702.807453 132.770186c19.080745 0 31.801242 12.720497 31.801242 31.801242L734.608696 749.714286C734.608696 768.795031 721.888199 781.515528 702.807453 781.515528zM709.167702 164.571429c0-6.360248-6.360248-12.720497-12.720497-12.720497L359.354037 151.850932c-6.360248 0-12.720497 6.360248-12.720497 12.720497L346.63354 749.714286c0 6.360248 6.360248 12.720497 12.720497 12.720497L702.807453 762.434783c6.360248 0 12.720497-6.360248 12.720497-12.720497L715.52795 164.571429zM531.080745 18.285714m-57.242236 0a0.9 0.9 0 1 0 114.484472 0 0.9 0.9 0 1 0-114.484472 0Z"  horiz-adv-x="1024" />

    
    <glyph glyph-name="qunfengzanwudingdan" unicode="&#59354;" d="M642.390159 154.295345M642.390159 308.470533c-32.011289 0-77.085094-23.921279-77.085094-77.090094 0-42.510052 34.570042-77.085094 77.085094-77.085094 42.505052 0 77.085094 34.585042 77.085094 77.085094C719.475253 273.889241 684.905211 308.470533 642.390159 308.470533zM651.08642 286.393006l-1.680002-81.185099-17.881272 0-1.616252 81.185099L651.08642 286.393006zM649.348918 178.084124c-2.295003-2.348753-5.185006-3.603754-8.34501-3.603754-3.686254 0-6.757508 1.221251-9.101261 3.618754-2.295003 2.300003-3.516254 5.210006-3.516254 8.40876 0 3.412504 1.221251 6.332508 3.642504 8.676261 4.785006 4.590006 12.510015 4.628756 17.251271-0.16625 2.343753-2.348753 3.598754-5.297506 3.598754-8.51126C652.878922 183.32663 651.65267 180.401626 649.348918 178.084124zM512.01 896C229.240905 896 0.006875 666.75472 0.006875 384.011875c0-282.792845 229.23403-512.006875 512.003125-512.011875 282.754095 0 511.983125 229.21903 511.983125 512.001875C1023.993125 666.75472 794.774095 896 512.01 896zM560.305059 134.51782l-239.775293 0c-20.058774 0-36.377544 16.32002-36.377544 36.373794L284.152222 597.698386c0 20.053774 16.32377 36.367544 36.377544 36.367544l338.657913 0c20.053774 0 36.377544-16.31377 36.377544-36.367544L695.565224 334.349314l-21.900027 0L673.665197 597.698386c0 7.97876-6.498758 14.473768-14.477518 14.473768L320.529766 612.172154c-7.97876 0-14.467518-6.495008-14.467518-14.473768l0-426.816771c0-7.98001 6.488758-14.462518 14.467518-14.462518l239.775293 0L560.305059 134.51782zM385.481096 332.528062c-6.328758 0-11.475014 5.722507-11.475014 12.758766 0 7.045009 5.146256 12.768766 11.475014 12.768766l208.745255 0c6.328758 0 11.485014-5.723757 11.485014-12.768766 0-7.026259-5.156256-12.758766-11.485014-12.758766L385.481096 332.528062zM548.152544 284.518004l-2.812503-5.390007c-2.881254-5.495007-5.258756-11.386264-7.056259-17.505021L537.507531 258.987972 385.491096 258.987972c-6.328758 0-11.480014 5.722507-11.480014 12.763766 0 7.045009 5.141256 12.778766 11.470014 12.767516L548.152544 284.519254zM432.794903 486.28325c-5.736257 0-10.405013 4.667506-10.405013 10.405013l0 6.713758c0 5.727507 4.668756 10.400013 10.405013 10.400013l8.40376 0-16.841271 28.462535c-1.083751 1.811252-1.361252 4.008755-0.781251 6.186258 0.723751 2.715003 2.706253 5.156256 5.435007 6.690008l5.922507 3.333754c4.883756 2.760003 11.147514 1.621252 13.536267-2.455003l24.98003-42.217552 32.81754 0 24.98003 42.231302c2.402503 4.072505 8.686261 5.191256 13.540017 2.446253l5.908757-3.330004c2.738753-1.542502 4.707506-3.978755 5.430007-6.688758 0.596251-2.177503 0.3175-4.375005-0.776251-6.196258l-16.821271-28.462535 8.39876 0c5.732507 0 10.400013-4.672506 10.400013-10.400013l0-6.713758c0-5.737507-4.667506-10.405013-10.400013-10.405013l-43.310053 0 0-26.192532 43.305053 0c5.727507 0 10.400013-4.667506 10.400013-10.400013l0-6.718758c0-5.732507-4.672506-10.400013-10.400013-10.400013l-43.310053 0 0-29.878786c0-5.736257-4.668756-10.410013-10.410013-10.410013l-6.695008 0c-5.737507 0-10.405013 4.673756-10.405013 10.410013l0 29.878786-43.310053 0c-5.742507 0-10.411263 4.667506-10.411263 10.400013l0 6.718758c0 5.732507 4.668756 10.400013 10.411263 10.400013l43.315053 0 0 26.192532L432.794903 486.28325zM642.390159 133.92907c-53.730066 0-97.456369 43.715053-97.456369 97.451369 0 61.010074 49.56006 97.460119 97.456369 97.460119 53.730066 0 97.456369-43.715053 97.456369-97.460119C739.846528 177.642873 696.121475 133.92907 642.390159 133.92907z"  horiz-adv-x="1024" />

    
    <glyph glyph-name="yuesao01" unicode="&#58901;" d="M511.99825351 893.70043051c-281.33909163 0-509.41052131-228.07259363-509.41052132-509.41052132 0-281.34142066 228.07142969-509.41052131 509.41052132-509.41052132 281.34025671 0 509.41168526 228.07026461 509.41168526 509.41052132C1021.40993877 665.62900195 793.33851022 893.70043051 511.99825351 893.70043051zM649.65402169 273.58757204999995l-92.53234916 92.5335131c-8.66468409 8.66584803-22.71539655 8.66701198-31.38124458 0-8.66351901-8.66351901-8.66351901-22.7165605 0-31.38124458l93.43351352-93.43234958-35.3526545-35.35032662-93.43234958 93.43118564c-8.66584803 8.66584803-22.71423261 8.66584803-31.38124459 0.00116394-8.66468409-8.66701198-8.66468409-22.71539655 0-31.38124458l93.43234958-93.43118564-34.55860622-34.55860622-93.43351353 93.43234958c-8.66468409 8.66468409-22.71423261 8.66468409-31.38008064-0.00116394s-8.66468409-22.71539655 0-31.38124459l93.43234958-93.43002055-1.90012984-1.90245774c-50.28473856-50.28473856-131.81217109-50.28473856-182.09807474 0.00116394l-68.03790962 68.03674568c-50.28473856 50.28473856-50.28473856 131.81217109 0 182.09807473l153.15719282 153.15719282c50.28473856 50.28473856 131.81217109 50.28473856 182.09807474 0l68.0390747-68.0390747C683.70033778 396.05045362 687.65777693 324.03647602 649.65402169 273.58757204999995zM772.61987954 588.88100067l-28.44023581-28.43907072c-2.17141021-3.22626105-7.97542059-13.48137187-2.65342862-24.41410332 14.52574493-25.11151559 11.066624-57.76999197-10.41927623-79.25822122l-27.25149013-27.25032619-0.22237981 0.22354489c-8.34101021-8.34217415-37.53803662 19.26442553-37.53803662 19.26442552s-78.84722517 78.84838912-97.71462656 97.71579051c-15.83441237 15.83441237-13.06688285 25.93001472-11.76520135 28.76740267l27.88486599 27.88603108c21.13661269 21.13544761 53.08370489 24.82742727 78.02174009 11.11785358l-0.00465692 0.01280682c13.63505949-7.55511069 26.56106269 2.84553671 26.56106268 2.84553672l27.53557845 27.53441336c6.21733547 6.2196645 16.30129493 6.2196645 22.5186304 0l33.48978233-33.48861838C778.83721501 605.18345955 778.83721501 595.09950009 772.61987954 588.88100067z"  horiz-adv-x="1024" />

    
    <glyph glyph-name="baomuyuesao" unicode="&#58981;" d="M793.080 451.821c-9.752 49.907-32.459 68.365-46.59 75.174-2.639 4.064-4.835 10.167-4.436 19.421 0.109 2.745 0.052 4.719-0.151 6.102 0.126 3.435 0.304 6.862 0.304 10.324 0.015 149.183-103.604 270.574-230.982 270.574-127.379 0-231.002-121.391-231.002-270.574 0-3.289 0.188-6.547 0.288-9.821-0.304-1.377-0.424-3.478-0.288-6.762 0.544-12.707-3.708-19.547-7.427-23.177-1.492-0.985-3.042-2.133-4.629-3.39-0.324-0.146-0.551-0.225-0.551-0.225l0.069-0.146c-12.808-10.427-27.378-30.123-34.681-67.489-11.496-58.711 23.21-118.972 30.637-128.903 21.894-29.347 43.804-40.73 67.629-42.122 40.96-2.414 60.319 3.169 81.328 37.446 29.939-16.625 63.361-25.964 98.627-25.964 36.345 0 70.735 9.911 101.361 27.493 21.367-35.591 40.688-41.421 82.234-38.975 23.832 1.393 45.737 12.765 67.646 42.122 7.401 9.921 42.106 70.181 30.615 128.892v0zM511.224 307.593c-106.322 0-194.852 91.527-212.445 211.492 20.245-3.54 44.6-4.74 66.944-4.74 89.54 0 179.956 43.411 220.794 140.395 33.088-77.189 78.205-114.986 138.398-126.005-14.131-124.661-104.546-221.142-213.691-221.142v0zM507.217 169.589h-86.281c0 0-46.727 69.731-44.029 79.446 2.696 9.711 31.442 28.247 41.331 27.357 9.884-0.875 35.737-64.1 88.754-64.1l0.224-42.704zM515.822 169.589h86.267c0 0 46.727 69.731 44.040 79.446-2.693 9.711-31.443 28.247-41.342 27.357-9.888-0.875-35.728-64.1-88.754-64.1l-0.211-42.704zM635.422-15.782c0-25.593-20.752-46.345-46.346-46.345h-153.597c-25.592 0-46.343 20.747-46.343 46.345v0c0 25.592 20.752 46.343 46.343 46.343h153.597c25.594 0 46.346-20.763 46.346-46.343v0 0zM291.813 248.149c0 0-82.967 13.236-150.058-133.296 0 0-23.853-31.784 50.309-65.321 74.147-33.542 122.69-89.158 127.996-110.344 5.3-21.188 29.598 157.668 27.378 190.671-2.226 32.664-15.907 93.573-55.625 118.29v0zM729.671 248.149c0 0 82.967 13.236 150.059-133.296 0 0 23.853-31.784-50.31-65.321-74.146-33.542-122.69-89.158-127.996-110.344-5.289-21.188-29.604 157.668-27.379 190.671 2.226 32.664 15.902 93.573 55.626 118.29v0zM729.671 248.149z"  horiz-adv-x="1024" />

    
    <glyph glyph-name="dingweifuhao21" unicode="&#58894;" d="M4.723247 327.321033c0 41.564576 0 77.461255 0 119.02583 56.678967-11.335793 66.125461 24.560886 81.239852 68.01476 47.232472 153.03321 151.143911 253.166052 304.177122 296.619926 47.232472 13.225092 73.682657 28.339483 60.457565 83.129151 41.564576 0 77.461255 0 119.02583 0-13.225092-62.346863 28.339483-69.904059 75.571956-85.01845 151.143911-47.232472 253.166052-151.143911 298.509225-302.287823 11.335793-39.675277 20.782288-71.793358 73.682657-60.457565 0-39.675277 0-77.461255 0-117.136531-17.00369-3.778598-34.00738-7.557196-54.789668-11.335793-7.557196-26.450185-13.225092-54.789668-22.671587-81.239852-54.789668-154.922509-160.590406-255.055351-319.291513-296.619926-37.785978-9.446494-58.568266-22.671587-51.01107-68.01476-39.675277 0-75.571956 0-117.136531 0 9.446494 54.789668-30.228782 58.568266-71.793358 71.793358-154.922509 51.01107-258.833948 153.03321-302.287823 311.734317C70.848708 300.870849 61.402214 336.767528 4.723247 327.321033zM189.874539 391.557196C186.095941 212.073801 325.904059 62.819188 501.608856 59.04059c187.04059-3.778598 336.295203 137.918819 340.073801 321.180812 1.889299 177.594096-141.697417 328.738007-321.180812 330.627306C337.239852 714.627306 193.653137 572.929889 189.874539 391.557196zM512.944649 132.723247c-139.808118 0-251.276753 113.357934-251.276753 255.055351 0 139.808118 115.247232 255.055351 253.166052 255.055351 141.697417 0 253.166052-115.247232 253.166052-258.833948C766.110701 242.302583 654.642066 132.723247 512.944649 132.723247z"  horiz-adv-x="1024" />

    
    <glyph glyph-name="gengduo1" unicode="&#59141;" d="M512 891.163469c280.097364 0 507.163469-227.066105 507.163469-507.173503 0-280.08733-227.066105-507.153435-507.163469-507.153435S4.836531 103.902636 4.836531 383.989966C4.836531 664.097364 231.902636 891.163469 512 891.163469zM324.599471 436.73023c-21.844664 0-39.765919 17.91122-39.765919 39.765919L284.833552 582.528564c0 21.83463 17.921254 39.74585 39.765919 39.74585l106.022381 0c21.844664 0 39.765919-17.91122 39.765919-39.74585l0-106.032415c0-21.854699-17.921254-39.765919-39.765919-39.765919L324.599471 436.73023 324.599471 436.73023zM496.898383 476.47608 496.898383 582.528564c0 36.474669-29.791828 66.266497-66.266497 66.266497L324.609505 648.795061c-36.484704 0-66.266497-29.811896-66.266497-66.266497l0-106.032415c0-36.494738 29.791828-66.276531 66.266497-66.276531l106.022381 0C467.106556 410.209584 496.898383 440.001411 496.898383 476.47608L496.898383 476.47608zM722.208486 436.73023 616.186105 436.73023c-21.83463 0-39.765919 17.91122-39.765919 39.765919L576.420186 582.528564c0 21.83463 17.931289 39.74585 39.765919 39.74585l106.022381 0c21.854699 0 39.765919-17.91122 39.765919-39.74585l0-106.032415C761.974405 454.64145 744.063185 436.73023 722.208486 436.73023L722.208486 436.73023zM788.495051 582.528564c0 36.474669-29.791828 66.266497-66.266497 66.266497L616.206173 648.795061c-36.494738 0-66.276531-29.811896-66.276531-66.266497l0-106.032415c0-36.494738 29.791828-66.276531 66.276531-66.276531l106.022381 0c36.474669 0 66.266497 29.791828 66.266497 66.276531L788.495051 582.528564 788.495051 582.528564zM430.641921 145.133562 324.609505 145.133562c-21.844664 0-39.765919 17.931289-39.765919 39.755884L284.843586 290.921862c0 21.854699 17.921254 39.765919 39.765919 39.765919l106.022381 0c21.844664 0 39.765919-17.91122 39.765919-39.765919l0-106.022381C470.397805 163.074885 452.476551 145.133562 430.641921 145.133562L430.641921 145.133562zM496.898383 290.921862c0 36.494738-29.791828 66.266497-66.266497 66.266497L324.609505 357.188359c-36.484704 0-66.266497-29.791828-66.266497-66.266497l0-106.022381c0-36.464635 29.791828-66.256463 66.266497-66.256463l106.022381 0c36.484704 0 66.266497 29.791828 66.266497 66.256463L496.898383 290.921862 496.898383 290.921862zM616.186105 145.133562c-21.83463 0-39.74585 17.931289-39.74585 39.755884L576.440255 290.921862c0 21.854699 17.91122 39.765919 39.74585 39.765919l106.022381 0c21.854699 0 39.765919-17.91122 39.765919-39.765919l0-106.022381c0-21.824596-17.91122-39.755884-39.765919-39.755884L616.186105 145.143596 616.186105 145.133562zM788.495051 184.889446 788.495051 290.921862c0 36.494738-29.791828 66.266497-66.266497 66.266497L616.206173 357.188359c-36.494738 0-66.276531-29.791828-66.276531-66.266497l0-106.022381c0-36.464635 29.791828-66.256463 66.276531-66.256463l106.022381 0C758.683155 118.643018 788.495051 148.434846 788.495051 184.889446L788.495051 184.889446z"  horiz-adv-x="1024" />

    
    <glyph glyph-name="weixin2" unicode="&#58992;" d="M512.73678-72.402751c-246.990301 0-447.905216 200.953801-447.905216 447.911356 0 246.943228 200.914916 447.898053 447.905216 447.898053 246.947322 0 447.904193-200.953801 447.904193-447.898053C960.640973 128.550027 759.684102-72.402751 512.73678-72.402751zM512.73678 806.167019c-237.487879 0-430.665577-193.171558-430.665577-430.658414s193.177698-430.658414 430.665577-430.658414c237.4449 0 430.664553 193.171558 430.664553 430.658414S750.180658 806.167019 512.73678 806.167019zM615.259782 441.373709c7.009647 0 13.96199-0.534166 20.772093-1.310855-18.720364 87.122243-111.826901 151.754263-217.995943 151.754263-118.79357 0-216.116129-80.980359-216.116129-183.831842 0-59.268872 32.413224-108.029412 86.48063-145.877415l-21.598924-64.989153 75.53944 37.912471c26.998911-5.342682 48.654117-10.849092 75.696006-10.849092 6.752798 0 13.477966 0.314155 20.117177 0.854461-4.188392 14.46034-6.639211 29.570479-6.639211 45.25674C431.512874 364.731144 512.564865 441.373709 615.259782 441.373709zM499.101225 499.943662c16.213263 0 27.027563-10.671037 27.027563-26.948769 0-16.2061-10.813277-27.055193-27.027563-27.055193-16.22759 0-32.483832 10.849092-32.483832 27.055193C466.618417 489.272625 482.873636 499.943662 499.101225 499.943662zM347.824847 445.939701c-16.213263 0-32.598442 10.849092-32.598442 27.055193 0 16.276708 16.384156 26.948769 32.598442 26.948769 16.184611 0 26.912953-10.671037 26.912953-26.948769C374.7378 456.788793 364.009458 445.939701 347.824847 445.939701zM812.484655 272.899646c0 86.424348-86.424348 156.841118-183.504384 156.841118-102.850459 0-183.874821-70.416769-183.874821-156.841118 0-86.573751 81.023338-156.798139 183.874821-156.798139 21.512966 0 43.169195 5.385661 64.796772 10.813277l59.311851-32.483832-16.299221 54.011124C780.214694 180.984237 812.484655 224.181061 812.484655 272.899646zM569.33994 299.955862c-10.770298 0-21.626553 10.714016-21.626553 21.606087 0 10.79281 10.856255 21.609157 21.626553 21.609157 16.3422 0 27.04189-10.81737 27.04189-21.609157C596.381829 310.668855 585.68214 299.955862 569.33994 299.955862zM688.205141 299.955862c-10.685363 0-21.456684 10.714016-21.456684 21.606087 0 10.79281 10.770298 21.609157 21.456684 21.609157 16.22759 0 27.083845-10.81737 27.083845-21.609157C715.290009 310.668855 704.432731 299.955862 688.205141 299.955862z"  horiz-adv-x="1024" />

    
    <glyph glyph-name="yuesao2" unicode="&#59147;" d="M647.144 314.518l-279.971 5.091C158.161 262.953 162.9-43.299 286.546-43.299c1.184 0 2.291 0.258 3.471 0.302 33.512-11.24 65.303-14.124 131.682-14.124 9.937 0 20.061 0 30.317 0.019 10.484-14.009 27.567-21.146 44.896-16.928l154.487 17.942c32.956 1.619 55.09 5.393 78.017 13.091 1.174-0.044 2.296-0.302 3.471-0.302C867.637-43.299 880.712 240.685 647.144 314.518zM509.611 56.432c-0.125-1.469-0.33-2.946-0.628-4.424-0.658-3.311-2.047-6.532-4.299-9.576-2.714-3.862-5.575-7.582-8.553-11.195l-18.071-6.676c-19.682-4.806-33.721-22.837-36.039-43.716-9.007-8.597-18-17.212-26.433-26.325-0.031 0.018-14.658-6.479-33.655-8.277-4.757-0.436-9.789-0.569-14.96-0.231-5.171 0.356-10.479 1.202-15.749 2.706-10.56 3.079-20.914 8.473-30.015 18.814-9.082 10.377-13.002 22.125-13.233 34.566-0.249 12.371 3.319 25.115 8.424 35.555 10.274 21.44 25.76 31.123 25.533 31.71 40.592 16.501 26.553 11.321 132.225 33.072l-2.016-1.46c1.655 1.406 8.539 0.837 10.608 1.131 2.065 0.223 4.152-0.08 6.172-0.846 2.038-0.774 3.895-1.887 5.562-3.328 1.678-1.451 3.026-3.204 4.027-5.313 2.515-5.26 4.828-10.279 7.044-15.228 0.882-1.967 1.736-4.29 2.581-6.995 0.766-2.475 1.246-5.136 1.474-7.975L509.61 56.432zM676.932 98.19 552.45 52.097c-15.824 14.329-25.827 35.351-25.827 58.802 0 43.173 33.873 78.185 75.657 78.185 41.794 0 75.667-35.012 75.667-78.185C677.947 106.574 677.591 102.329 676.932 98.19zM327.44 338.299c37.304-2.207 54.93 2.919 74.064 34.354 27.265-15.245 57.706-23.816 89.821-23.816 33.09 0 64.417 9.096 92.31 25.223 19.464-32.653 37.05-38.002 74.883-35.76 21.707 1.281 41.66 11.712 61.604 38.644 6.746 9.104 38.35 64.381 27.883 118.234-8.873 45.785-29.556 62.717-42.425 68.964-2.403 3.729-4.405 9.327-4.041 17.813 0.099 2.515 0.045 4.33-0.133 5.603 0.106 3.15 0.267 6.292 0.267 9.465 0.018 136.853-94.348 248.212-210.348 248.212-116.005 0-210.374-111.359-210.374-248.212 0-3.013 0.169-6.003 0.267-9.007-0.284-1.259-0.392-3.186-0.267-6.203 0.494-11.654-3.378-17.933-6.764-21.257-1.362-0.903-2.772-1.958-4.219-3.115-0.294-0.134-0.499-0.205-0.499-0.205l0.062-0.133c-11.663-9.567-24.933-27.634-31.585-61.912-10.467-53.857 21.137-109.134 27.9-118.247C285.784 350.019 305.742 339.58 327.44 338.299zM358.816 552.536c81.545 0 163.882 39.822 201.074 128.789 30.126-70.807 71.226-105.48 126.039-115.591-12.869-114.358-95.21-202.863-194.604-202.863-96.83 0-177.454 83.966-193.474 194.017C316.284 553.639 338.467 552.536 358.816 552.536z"  horiz-adv-x="1024" />

    
    <glyph glyph-name="yanglao-copy" unicode="&#58882;" d="M511.953 893.62c-281.461 0-509.628-228.167-509.628-509.628s228.167-509.628 509.628-509.628 509.628 228.167 509.628 509.628-228.167 509.628-509.628 509.628zM397.987 755.133c36.107 11.473 74.107-6.67 84.843-40.506l-130.751-41.552c-10.75 33.838 9.802 70.571 45.909 82.058zM353.15 665.123l136.294 43.318 47.914-6.991c0.585-1.909-1.49-4.261-4.638-5.262l-210.721-66.963c-3.161-1.004-6.21-0.292-6.823 1.629l37.972 34.27zM451.916 590.894c-35.494-11.334-73.478 8.313-84.773 43.822l128.622 40.964c11.307-35.522-8.314-73.494-43.849-84.787zM706.667 381.787c-35.897 22.796-61.923 71.516-85.428 109.657-7.156 1.963-14.329 3.925-21.541 5.849 17.169-31.038 33.837-62.326 50.017-93.838 2.368-4.666 4.177-9.287 5.543-13.855 4.54-5.876 7.562-13.451 8.076-22.85 5.723-103.070 11.431-226.971 17.114-330.054 2.996-53.707-80.108-57.885-83.088-4.345-4.164 74.9-8.299 160.842-12.435 241.787-34.269-21.361-64.637-48.445-90.787-79.148 0.166-0.571 0.348-1.086 0.487-1.657 12.282-48.569 24.549-97.152 36.831-145.721 13.145-52.050-68.759-66.826-81.807-15.039-12.282 48.569-24.549 97.138-36.831 145.693-1.183 4.678-1.573 9.050-1.337 13.103-6.099 11.502-6.142 25.789 4.817 39.548 31.901 40.089 68.314 74.9 110.004 103.642-15.234 29.575-30.871 58.929-46.912 88.075-39.407-38.223-93.114-56.604-156.944-49.934v-372.343h-23.626v384.985c-16.333 20.399-8.647 57.536 23.63 54.155 52.579-5.5 94.756 7.798 122.788 43.542-1.337 2.311-2.646 4.652-3.996 6.962-36.803 62.925 33.46 120.976 86.736 102.011 30.467-4.483 60.543-11.167 90.426-18.716 21.584-5.458 48.638-7.965 61.908-28.113 10.261-15.596 20.705-31.094 31.33-46.452 9.011-13.006 17.977-26.038 27.558-38.67 2.716-3.58 17.057-16.585 7.199-10.332 42.749-27.126 3.286-95.286-39.727-67.939z"  horiz-adv-x="1024" />

    
    <glyph glyph-name="jiahao" unicode="&#58907;" d="M219.428571 420.571429l585.142857 0 0-73.142857-585.142857 0 0 73.142857ZM548.571429 676.571429l0-585.142857-73.142857 0 0 585.142857 73.142857 0ZM512-128C794.769792-128 1024 101.230208 1024 384 1024 666.769792 794.769792 896 512 896 229.230208 896 0 666.769792 0 384 0 101.230208 229.230208-128 512-128L512-128ZM512-54.857143C269.625893-54.857143 73.142857 141.625893 73.142857 384 73.142857 626.374107 269.625893 822.857143 512 822.857143 754.374107 822.857143 950.857143 626.374107 950.857143 384 950.857143 141.625893 754.374107-54.857143 512-54.857143L512-54.857143Z"  horiz-adv-x="1024" />

    
    <glyph glyph-name="mianfei" unicode="&#58995;" d="M512 896C229.665391 896 0 666.334609 0 384 0 282.445913 29.785043 184.186435 86.105043 99.906783 96.345043 84.591304 117.092174 80.539826 132.429913 90.713043 147.767652 100.953043 151.863652 121.700174 141.623652 137.037913 92.672 210.298435 66.782609 295.69113 66.782609 384 66.782609 629.49287 266.50713 829.217391 512 829.217391 757.49287 829.217391 957.217391 629.49287 957.217391 384 957.217391 138.50713 757.49287-61.217391 512-61.217391 423.424-61.217391 337.808696-35.194435 264.392348 14.024348 249.143652 24.264348 228.374261 20.190609 218.067478 4.87513 207.805217-10.440348 211.901217-31.165217 227.216696-41.449739 311.652174-98.05913 410.134261-128 512-128 794.334609-128 1024 101.665391 1024 384 1024 666.334609 794.334609 896 512 896ZM323.283478 360.913252C309.103304 360.913252 301.979826 367.101774 301.979826 379.478817L301.979826 430.010991C301.979826 443.81273 309.103304 450.691339 323.283478 450.691339L462.057739 450.691339C458.629565 418.635687 450.192696 388.717078 436.813913 360.913252L323.283478 360.913252ZM524.454957 450.691339 700.360348 450.691339C708.10713 450.691339 714.073043 449.1776 718.32487 446.127861 721.975652 443.501078 723.801043 438.113948 723.801043 430.010991L723.801043 375.828035C723.801043 365.899687 716.032 360.913252 700.360348 360.913252L504.375652 360.913252C513.324522 388.917426 520.025043 418.858296 524.454957 450.691339ZM334.547478 238.255861C309.815652 221.226296 273.975652 205.688209 227.116522 191.686122L227.116522 139.039165C246.416696 141.064904 261.798957 143.402296 273.374609 146.051339 309.504 154.977948 344.275478 171.495513 377.755826 195.648557 413.506783 221.827339 446.363826 258.157078 476.371478 304.615513L522.028522 304.615513 522.028522 201.12473C522.028522 180.021426 528.328348 164.5056 540.883478 154.554991 552.281043 145.428035 566.77287 140.864557 584.403478 140.864557L789.849043 140.864557 789.849043 198.698296 603.881739 198.698296C595.801043 198.698296 589.901913 200.212035 586.25113 203.261774 582.800696 206.111165 581.197913 212.277426 581.376 221.827339L581.665391 304.615513 720.461913 304.615513C738.715826 304.615513 753.764174 310.202991 765.495652 321.355687 775.446261 330.883339 780.410435 345.397426 780.410435 364.875687L780.410435 446.728904C780.410435 466.630122 774.934261 481.633948 763.981913 491.784904 757.281391 498.06247 746.841043 502.848557 732.638609 506.076383L748.755478 543.207513C753.452522 553.981774 755.767652 562.997426 755.767652 570.298991 755.767652 584.924383 749.890783 597.90247 738.114783 609.255513 726.160696 621.231861 709.709913 627.220035 688.806957 627.220035L359.501913 627.220035 368.317217 657.338991 311.106783 657.338991C300.755478 628.533426 290.114783 607.430122 279.162435 594.051339 265.984 577.600557 250.534957 567.672209 232.882087 564.221774L232.882087 506.076383C256.233739 512.576557 275.622957 521.191513 291.027478 531.965774 304.62887 541.493426 317.94087 554.471513 330.896696 570.922296L665.366261 570.922296C677.36487 570.922296 684.844522 570.098643 687.894261 568.4736 692.591304 566.047165 694.884174 562.59673 694.884174 558.122296 694.884174 553.670122 692.902957 546.880557 688.806957 537.731339L675.405913 508.213426 326.021565 508.213426C295.41287 508.213426 274.42087 502.9376 263.023304 492.385948 251.069217 481.032904 245.058783 464.80473 245.058783 443.701426L245.058783 367.903165C245.058783 336.448557 258.05913 316.369252 284.015304 307.642991 290.114783 305.639513 302.425043 304.615513 320.857043 304.615513L403.333565 304.615513C379.581217 275.186643 356.674783 253.059339 334.547478 238.255861L334.547478 238.255861Z"  horiz-adv-x="1024" />

    
    <glyph glyph-name="qq" unicode="&#58983;" d="M509.752308 830.619944c-246.475578 0-446.279183-199.803605-446.279183-446.279183 0-246.448972 199.803605-446.274066 446.279183-446.274066 246.470461 0 446.274066 199.824071 446.274066 446.274066C956.025351 630.816339 756.221746 830.619944 509.752308 830.619944L509.752308 830.619944 509.752308 830.619944zM707.486788 275.336138c0 0-14.129812-38.546921-40.049135-73.170486 0 0 46.309722-15.734356 42.398646-56.638975 0 0 1.549286-45.629223-98.896404-42.479487 0 0-70.667479 5.506411-91.854011 35.397185l-18.671245 0c-21.186532-29.90203-91.827405-35.397185-91.827405-35.397185-100.481506-3.149736-98.909707 42.479487-98.909707 42.479487-3.920286 40.904619 42.385343 56.638975 42.385343 56.638975-25.89681 34.623565-40.023552 73.170486-40.023552 73.170486-62.806441-101.494579-56.524364 14.159488-56.524364 14.159488 11.788487 68.444858 61.222363 113.286136 61.222363 113.286136-7.068999 62.159712 18.837021 73.166393 18.837021 73.166393 5.435803 192.295608 170.71408 188.93814 174.178995 188.843996 3.472078 0.094144 168.725796 3.451612 174.173878-188.831716 0 0 25.89681-11.018961 18.841114-73.169463 0 0 49.451272-44.837184 61.21827-113.283066l0 0C763.984546 289.495626 770.258437 173.841559 707.486788 275.336138L707.486788 275.336138 707.486788 275.336138zM707.486788 275.336138"  horiz-adv-x="1024" />

    
    <glyph glyph-name="xiaoxi1" unicode="&#58903;" d="M847.768253 768.019187 175.951361 768.019187c-68.013023 0-111.960954-42.982954-111.960954-109.585861l0-526.231119c0-66.400293 66.539462-131.710764 134.356011-131.710764l627.02985 0c67.815525 0 134.056182 65.311495 134.056182 131.710764L959.432449 658.432303C959.430402 725.036233 915.781276 768.019187 847.768253 768.019187zM892.298446 132.202207c0-30.127158-36.153408-65.980737-66.923202-65.980737L198.345394 66.22147c-30.769794 0-67.223031 35.853579-67.223031 65.980737L131.122363 548.353209 492.682026 302.622598c5.752004-3.918239 12.476149-5.866614 19.167548-5.866614 6.691399 0 13.260002 1.948375 19.033495 5.866614l361.415376 245.690702L892.298446 132.202207zM892.298446 628.396219l-380.588041-258.710226-380.588041 258.752182 0 29.993105c0 29.934776 14.278191 43.855834 44.828998 43.855834l671.817915 0c30.550807 0 44.530193-13.921058 44.530193-43.855834L892.299469 628.396219z"  horiz-adv-x="1024" />

    
    <glyph glyph-name="shezhi1" unicode="&#58915;" d="M512 556.396395C416.927691 556.396395 339.588255 479.055936 339.588255 384s77.339436-172.395372 172.411745-172.395372c18.889209 0 37.434587 3.01773 55.166437 8.990768 15.074324 5.097088 23.173792 21.453614 18.075681 36.527938-5.066389 15.089673-21.422915 23.11137-36.527938 18.107403-11.758812-3.971451-24.112164-5.988388-36.715203-5.988388-63.266929 0-114.743324 51.476395-114.743324 114.758674s51.476395 114.758674 114.743324 114.758674 114.743324-51.476395 114.743324-114.758674c0-8.475022-0.87595-16.778128-2.689249-24.87862-0.844228-3.90903-1.907443-7.708566-3.158946-11.44568-5.003967-15.105023 3.158946-31.414477 18.263969-36.433794 15.199167-5.003967 31.429827 3.174296 36.465516 18.263969 1.876744 5.676279 3.502777 11.509125 4.753257 17.263176 2.65855 12.009522 4.033873 24.550139 4.033873 37.230949C684.410722 479.055936 607.071286 556.396395 512 556.396395zM950.84691 460.739778c-2.282996 13.088086-13.19758 22.923082-26.457582 23.814382-47.879474 3.206018-90.724281 29.850865-114.64918 71.272253-23.955598 41.484833-25.550932 91.991134-4.284583 135.102001 5.879917 11.915377 2.877537 26.301016-7.317663 34.83846-39.185464 32.868595-84.001159 58.653865-133.225257 76.667124-12.508895 4.613064-26.488281 0.01535-33.869389-11.024078-26.707268-39.889499-71.209832-63.703881-119.058606-63.703881-47.817052 0-92.319615 23.814382-119.026884 63.703881-7.411807 11.039427-21.391193 15.60542-33.869389 11.024078-49.193399-17.997909-94.039793-43.798529-133.25698-76.651774-10.1952-8.537444-13.228279-22.939455-7.317663-34.854832 21.297049-43.110867 19.702738-93.617168-4.252861-135.11735-23.923876-41.406039-66.768683-68.050885-114.64918-71.256904-13.260002-0.8913-24.174586-10.727319-26.457582-23.814382-4.722558-27.161616-7.036253-52.258201-7.036253-76.729545 0-24.518417 2.314719-49.678446 7.036253-76.901461 2.282996-13.103436 13.19758-22.939455 26.457582-23.830755 47.879474-3.206018 90.724281-29.850865 114.64918-71.241554 23.923876-41.46846 25.550932-91.944062 4.315282-135.054929-5.848195-11.915377-2.815115-26.301016 7.349385-34.82311 39.247886-32.853245 84.063581-58.637492 133.287679-76.620052 12.353352-4.550643 26.39516-0.01535 33.806967 11.008728 26.707268 39.811728 71.179133 63.579037 118.964462 63.579037 47.817052 0 92.287893-23.768333 118.996185-63.579037 5.472642-8.146541 14.542204-12.759605 23.923876-12.759605 3.315512 0 6.661723 0.562818 9.882068 1.750877 49.225121 17.98256 94.039793 43.767829 133.287679 76.620052 10.163477 8.522094 13.19758 22.907733 7.349385 34.82311-21.234627 43.110867-19.608593 93.586468 4.315282 135.054929 23.923876 41.406039 66.768683 68.035536 114.617457 71.241554 13.228279 0.8913 24.174586 10.710946 26.457582 23.783683 4.753257 27.176966 7.067976 52.335972 7.067976 76.948533C957.883163 408.481577 955.568445 433.579185 950.84691 460.739778zM897.18064 337.866287c-57.481156-10.617825-107.768469-45.753043-137.353274-97.010451l0-0.01535c-29.616528-51.28913-34.870182-112.413256-15.292288-167.564343-24.518417-18.294668-51.257407-33.650401-79.935564-45.847188-37.934984 44.408419-93.445252 70.333882-152.614863 70.333882-59.138912 0-114.64918-25.925463-152.584164-70.333882-28.678156 12.196787-55.417147 27.552519-79.935564 45.847188 19.576871 55.151088 14.323217 116.275213-15.293311 167.579693-29.584806 51.257407-79.873142 86.377276-137.384997 97.010451-2.032286 16.043395-3.00238 31.273261-3.00238 46.143946 0 14.808264 0.969071 29.975708 3.00238 45.956681 57.511855 10.633175 107.800191 45.753043 137.384997 97.026824 29.647227 51.351552 34.900881 112.52275 15.229866 167.704536 24.487717 18.279319 51.226708 33.635051 79.873142 45.847188 37.966707-44.502563 93.507674-70.475098 152.709007-70.475098 59.232033 0 114.774023 25.972535 152.74073 70.475098 28.646434-12.212136 55.385425-27.567869 79.84142-45.847188-19.640316-55.181787-14.385639-116.352985 15.261589-167.689187 29.584806-51.28913 79.873142-86.408999 137.384997-97.042173 2.033309-15.980973 3.00238-31.148417 3.00238-45.956681C900.214742 369.108848 899.213949 353.877959 897.18064 337.866287z"  horiz-adv-x="1024" />

    
    <glyph glyph-name="yishiyong" unicode="&#58994;" d="M227.154533 368.607428c-23.375383 5.718235-31.907711 19.342534-25.575492 40.893362l24.286126 90.635253 30.212092-8.095375-4.774747-17.816784 91.410919-24.493857 9.963932 37.183877-127.044488 34.042327 7.265474 27.113521 157.25658-42.136679-24.493857-91.409896-121.623012 32.588209-10.17064-37.95852c-3.289929-10.197246 0.298805-16.412808 10.775414-18.662035l73.593112-19.718087c12.115945-4.363378 20.137643-1.245364 24.085558 9.320273 0.551562 2.058892 2.029216 5.541203 4.455475 10.43056 2.169409 6.061043 3.935636 10.56973 5.285377 13.529131 10.015098-6.004761 19.125593-11.222599 27.362184-15.634072-4.869914-11.979846-9.731642-22.857591-14.556531-32.631188-7.249101-14.663978-21.394263-18.891256-42.427298-12.709463L227.154533 368.607428zM407.912363 313.531042l22.210861 82.888825c-6.588045-5.993504-13.031804-11.452843-19.34151-16.404622 2.047636 13.83817 3.693112 27.239388 4.956895 40.185234 19.786649 20.150946 37.515429 45.019333 53.196573 74.586742l26.794249-14.651698c-7.354502-12.974499-16.064884-25.871227-26.13524-38.662555l-36.117592-134.790916L407.912363 313.531042zM566.150294 271.961274c-30.53648 12.06171-52.912094 23.597441-67.116607 34.590819-9.267061-3.602038-24.871457-6.062066-46.813189-7.383154l-10.816347 27.806299c14.635325-1.158383 26.310226-0.964978 35.027771 0.577145-4.675486 7.337105-9.339716 15.787568-13.9712 25.330922l19.797905 8.809643-16.268522 4.359284 17.643845 65.846684 46.480614-12.45466 3.321652 12.394285-49.579185 13.284561 6.434549 24.013927 49.579185-13.284561 4.773723 17.817808 28.661783-7.679913-4.773723-17.817808 51.128471-13.700023-6.434549-24.013927-51.903114 13.906731-3.321652-12.394285 47.255257-12.661368-19.303648-72.043826-26.338878 7.05672 1.660826 6.198166-22.464641 6.019087c-4.086062-11.086499-9.549493-20.144806-16.408715-27.15343 12.559037-8.904811 32.965809-17.421788 61.238736-25.542746-0.798179-0.900509-1.989307-2.242064-3.569292-4.025687C573.717643 282.673244 569.085136 276.714532 566.150294 271.961274zM500.724189 337.648322c4.343935 3.817955 7.990998 9.197476 10.970866 16.156982l-27.113521 7.265474C488.839511 352.171084 494.222101 344.372467 500.724189 337.648322zM503.953743 402.376533l-5.604648-20.916379 20.141736-5.395894 5.604648 20.915355L503.953743 402.376533zM572.897975 383.902786l-20.915355 5.604648-6.378268-20.708648 21.689998-5.812379L572.897975 383.902786zM629.214608 251.74279c-1.410116 0.935302-3.202948 2.518357-5.366218 4.758374-7.402597 7.523347-13.139252 12.939707-17.235546 16.241916 10.267854 9.417487 17.821901 19.017122 22.662139 28.79993 4.685719 9.253758 9.741875 23.959691 15.137769 44.101427l23.248494 86.762039 161.129794-43.174312-39.645952-147.959843c-3.812839-18.34788-14.94027-24.771173-33.395598-19.282159-6.332219 1.153266-15.446807 3.308349-27.321252 6.490831 0.666172 8.68173 1.133823 17.689894 1.428535 27.016307 7.086395-2.455935 13.214976-4.370541 18.384719-5.756097 8.116865-2.732228 12.817933-0.671289 14.111392 6.181793l4.359284 16.268522-38.734186 10.379395-12.662391-47.25628-28.662807 7.680936 12.662391 47.255257-37.95852 10.17064C656.128585 282.996608 645.414569 266.783345 629.214608 251.74279zM673.074535 337.963501c-1.245364-4.647857-2.354628-8.78713-3.320629-12.394285l36.409235-9.755178 6.226818 23.240307-36.409235 9.755178L673.074535 337.963501zM689.057555 397.612019l-6.226818-23.239284 36.409235-9.755178 6.226818 23.23826L689.057555 397.612019zM741.052766 331.372386l-6.226818-23.240307 38.734186-10.378371 6.226818 23.239284L741.052766 331.372386zM792.863782 369.797533l-38.734186 10.379395-6.226818-23.239284 38.734186-10.379395L792.863782 369.797533zM512 598.642568c70.719668 0 133.443221-34.206056 172.547845-86.968747l27.357068-7.329942c-40.839127 67.693752-115.083062 112.963795-199.904912 112.963795-40.980343 0-79.483262-10.578939-112.952538-29.134551l27.304879-7.316639C452.590935 592.287837 481.551524 598.642568 512 598.642568zM652.945079 610.783073l14.980179-12.141528 4.617158 18.197454 16.767895 9.79918-16.767895 9.79918-4.617158 18.197454-14.980179-12.143575-19.62599 1.450025 7.512091-17.304108-7.512091-17.302061L652.945079 610.783073zM393.037585 651.50759l-15.410991 10.724249-3.363607-18.987447-15.775288-11.762905 17.012466-8.15268 5.656837-17.994839 13.879102 13.951757 19.272949 0.64059-8.43409 16.774035 6.252401 18.391882L393.037585 651.50759zM537.309432 677.742091l-11.42112 14.901385-8.977465-17.066701-18.602683-6.411013 13.727653-12.936637-0.076748-18.86465 17.460674 9.072633 18.556635-5.246491-2.935865 18.543332 11.545964 15.618723L537.309432 677.742091zM746.131435 560.559205l-16.180518 11.200086-2.301416-18.724457-15.247262-11.101849 17.648962-8.703219 6.754844-18.063401 13.204743 13.34289 19.424398-0.059352-9.485025 16.951067 5.248537 18.026562L746.131435 560.559205zM956.288852 419.535331 145.002488 636.921383c-19.913539 5.334495-40.380686-6.483668-45.719274-26.397207L41.315988 394.181897c-5.334495-19.913539 6.482645-40.382733 26.39516-45.719274l811.286364-217.381959c19.913539-5.336542 40.382733 6.480598 45.719274 26.39516l57.966203 216.34228C988.020554 393.731642 976.202391 414.200836 956.288852 419.535331zM962.239378 369.633804l-53.136198-198.312648c-4.003174-14.935154-19.354813-23.799032-34.288944-19.797905L81.556481 364.075205c-14.935154 4.003174-23.796986 19.354813-19.797905 34.288944l53.140291 198.316741c4.000104 14.935154 19.352767 23.796986 34.288944 19.795858l793.255709-212.551954C957.378673 399.922644 966.242552 384.568958 962.239378 369.633804zM512 719.961658c155.48012 0 286.266839-105.624642 324.580446-249.025657l20.653389-5.53404c-36.787858 156.61906-177.391153 273.223778-345.232812 273.223778-101.768825 0-193.520505-42.872436-258.192434-111.537306l20.632923-5.528923C335.237157 682.358225 419.22706 719.961658 512 719.961658zM597.648682 187.14454c-26.239618-11.432377-55.200206-17.786085-85.648682-17.786085-70.718645 0-133.443221 34.206056-172.548868 86.970794l-27.358091 7.330966c40.839127-67.694775 115.083062-112.965841 199.906959-112.965841 40.980343 0 79.484286 10.578939 112.953561 29.134551L597.648682 187.14454zM397.395846 148.391934l-14.860453 12.114922-4.578272-18.156522-16.633842-9.774621 16.633842-9.776667 4.578272-18.155499 14.860453 12.112875 19.463284-1.444908-7.450692 17.263176 7.450692 17.263176L397.395846 148.391934zM511.941672 90.903615l11.328-14.868639 8.904811 17.027815 18.451234 6.39464-13.617136 12.906961 0.078795 18.819624-17.318434-9.05012-18.407232 5.235235 2.911306-18.500353-11.450796-15.582907L511.941672 90.903615zM276.004101 208.219531l15.21861-12.281721 3.594875 18.472723 15.868409 9.981329-16.84669 9.897418-5.412266 18.448164-14.005992-12.354376-19.215644 1.420349 8.18952-17.533328-6.463202-17.569144L276.004101 208.219531zM512 48.038342c-155.479097 0-286.267862 105.625666-324.580446 249.02668l-20.653389 5.53404c36.786835-156.61906 177.391153-273.225825 345.233835-273.225825 101.768825 0 193.521528 42.872436 258.193457 111.537306l-20.6319 5.5279C688.763866 85.641775 604.773963 48.038342 512 48.038342zM646.923946 116.524133l15.312754-10.715039 3.302209 18.929118 15.635095 11.704576-16.898879 8.15268-5.65172 17.951861-13.746072-13.892405-19.125593-0.611937 8.401344-16.736173-6.166443-18.328437L646.923946 116.524133z"  horiz-adv-x="1024" />

    
    <glyph glyph-name="yue" unicode="&#59529;" d="M940.287925 328.955336c-9.962909 75.969229-44.159756 146.741086-101.639888 210.352869-9.472745 10.483772-25.651216 11.302417-36.132942 1.829671-10.483772-9.472745-11.302417-25.650193-1.829671-36.132942 50.383504-55.757908 80.284511-117.227911 88.871073-182.703135 11.190877-85.336574-8.999978-157.587108-60.011792-214.745922-66.449411-74.457806-180.997284-115.874077-314.334081-113.623827-0.143263 0.00307-0.286526 0.004093-0.430812 0.004093l-2.161223 0c-0.207731 0-0.412392-0.011256-0.6191-0.016373-0.206708 0.005117-0.411369 0.016373-0.6191 0.016373l-2.161223 0c-0.144286 0-0.287549-0.001023-0.430812-0.004093-3.442402-0.058328-6.870478-0.086981-10.286274-0.086981-128.910998 0-239.314481 41.176818-304.047808 113.710808-51.011814 57.158814-71.202669 129.410372-60.012815 214.745922 24.625864 187.78692 219.953528 291.523563 279.233656 318.844815 8.176217 3.767813 13.769608 11.556197 14.728446 20.507056 0.959861 8.951883-2.856048 17.748223-10.047844 23.163559-0.196475 0.148379-19.869536 15.021112-38.717813 34.31248-24.995277 25.583678-30.082132 40.321334-30.005384 44.197618 1.205455 1.096984 7.122211 5.505387 26.146497 7.844665 51.42523 6.323009 95.985098 9.637498 136.220475 10.135848 40.235376-0.497327 84.794222-3.812839 136.220475-10.135848 19.023262-2.339278 24.940019-6.746658 26.146497-7.844665 0.074701-3.847631-4.948709-18.454304-29.621645-43.804668-18.829857-19.345604-38.911218-34.56319-39.10053-34.70543-7.191796-5.415336-11.007705-14.211676-10.047844-23.163559 0.959861-8.950859 6.55223-16.738219 14.728446-20.507056 23.096021-10.644431 58.734706-28.936029 97.362468-55.626925 4.438079-3.066849 9.504468-4.538363 14.519692-4.538363 8.119935 0 16.104793 3.856841 21.069875 11.042497 8.032954 11.623735 5.120624 27.557636-6.503111 35.589566-25.109887 17.35118-49.060369 31.414477-69.588915 42.366923 4.932336 4.572132 10.101055 9.577123 15.2094 14.870686 34.780131 36.032658 48.317449 66.140373 41.383526 92.042299-2.463098 9.204639-8.878205 22.218024-25.444509 31.94455-11.195993 6.572696-25.545816 10.863419-43.868113 13.115716-53.369511 6.562463-99.813287 10.001795-141.984758 10.516518-0.106424 0.001023-0.211824 0.002047-0.318248 0.002047-0.095167 0-0.189312-0.00614-0.282433-0.007163-0.119727 0-0.23843 0.00614-0.35918 0.005117-42.170448-0.514723-88.614224-3.955078-141.984758-10.516518-18.322297-2.252297-32.67212-6.54302-43.868113-13.116739-16.566304-9.725502-22.981411-22.73991-25.444509-31.94455-6.932899-25.901926 6.603395-56.008618 41.383526-92.042299 5.113461-5.297656 10.282181-10.30367 15.219633-14.879895-37.503149-20.023032-87.481424-50.979068-134.420479-93.601818-80.030731-72.672136-126.694517-155.915026-138.693806-247.415996-13.026688-99.335403 12.066827-187.674357 72.568782-255.466346 74.459852-83.432201 198.75574-130.809231 342.296947-130.807185 3.603061 0 7.229658 0.029676 10.856255 0.090051l1.945305 0c0.207731 0 0.412392 0.011256 0.6191 0.016373 0.206708-0.005117 0.411369-0.016373 0.6191-0.016373l1.947352 0c3.63683-0.060375 7.242961-0.090051 10.855232-0.090051 143.528927 0.004093 267.841188 47.3801 342.295923 130.807185C928.220075 141.279956 953.314613 229.61891 940.287925 328.955336zM639.739824 313.562764c11.30344 0 20.466124 9.162684 20.466124 20.466124s-9.162684 20.466124-20.466124 20.466124l-83.70133 0 81.645508 97.367585c7.263427 8.661264 6.128581 21.570271-2.532683 28.832675-8.661264 7.263427-21.570271 6.129604-28.832675-2.532683l-94.152357-112.281249-94.152357 112.281249c-7.263427 8.661264-20.172435 9.794064-28.832675 2.532683-8.661264-7.262404-9.795087-20.171412-2.532683-28.832675l81.646532-97.366561L383.231753 354.496036c-11.30344 0-20.466124-9.162684-20.466124-20.466124s9.162684-20.466124 20.466124-20.466124l108.469434 0 0-58.328453L383.231753 255.235334c-11.30344 0-20.466124-9.162684-20.466124-20.466124s9.162684-20.466124 20.466124-20.466124l108.469434 0 0-96.531544c0-11.30344 9.162684-20.466124 20.466124-20.466124s20.466124 9.162684 20.466124 20.466124l0 96.531544 107.10639 0c11.30344 0 20.466124 9.162684 20.466124 20.466124s-9.162684 20.466124-20.466124 20.466124L532.633435 255.235334l0 58.328453L639.739824 313.563788z"  horiz-adv-x="1024" />

    
    <glyph glyph-name="weixin1" unicode="&#58893;" d="M302.848897 587.813589c-18.67874 0-38.84109-12.091062-38.84109-31.622698 0-19.609452 20.16235-31.745564 38.84109-31.745565 18.946998 0 31.672869 12.758635 31.672869 31.741469-0.01843 19.213208-12.454541 31.626794-31.672869 31.626794zM495.296335 524.444302c19.005359 0 31.777305 12.758635 31.777305 31.745565 0 19.210136-12.471947 31.622698-31.777305 31.622698-18.62857 0-38.741773-12.091062-38.741773-31.618603 0.022525-19.612523 20.126514-31.74966 38.741773-31.74966zM903.969923 301.689859c0 107.183387-97.655111 198.754571-222.319292 208.468171l-0.690099 0.054266-2.091797 7.80303-0.031741-0.01843c-25.385189 113.782328-148.247332 199.386309-286.672532 199.386309-157.09063 0-284.894044-109.365287-284.894044-243.793239 0-71.907466 36.881373-137.009167 106.666325-188.268962l1.542995-1.134465-25.185531-75.718367c-1.256307-3.825236-0.113651-7.994497 2.894524-10.612572a10.001312 10.001312 0 0 1 6.505767-2.418417 10.14056 10.14056 0 0 1 4.437519 1.043339l93.113156 46.600093 12.572287-2.549474c28.175276-5.789048 52.502792-10.784584 82.347002-10.784585 8.706097 0 17.635401 0.380885 26.55037 1.14368l11.969219 1.650503c34.350329-83.986242 126.465196-140.329627 229.869423-140.329627 26.496104 0 53.015758 6.089046 80.110836 12.871263l0.998288 0.249828 72.052858-39.385797a9.917353 9.917353 0 0 1 4.749804-1.229686 9.870255 9.870255 0 0 1 6.210888 2.191114c3.144352 2.549474 4.419089 6.678804 3.243669 10.525541l-18.683859 62.139601 1.401699 1.111939c60.189099 47.555378 93.332267 104.736302 93.332266 161.004944z m-590.440878-41.700802l-15.765786 3.185307a9.499608 9.499608 0 0 1-1.964836 0.208873 9.514966 9.514966 0 0 1-4.351513-1.061769l-74.833731-37.461916 19.977027 60.020157c1.392484 4.187691-0.104436 8.706097-3.71568 11.243285-70.210888 48.936599-105.808309 108.643448-105.808309 177.465948 0 123.516406 118.925304 224.00256 265.099268 224.00256 128.697266 0 243.552626-78.858624 267.172637-183.423937l0.712624-3.170973-3.248788-0.040955c-132.39042-1.733438-240.095989-95.609388-240.095989-209.266802 0-15.566129 2.277121-31.782424 6.774025-48.20145l0.576448-1.390436-6.792456-1.472347h-0.235493a290.576607 290.576607 0 0 0-24.835363-1.065865c-28.167085 0-51.574128 4.836834-78.664085 10.43032z m474.805318-119.514038l13.701633-45.570064-54.294591 29.703937a9.814965 9.814965 0 0 1-4.736494 1.220471c-0.834467 0-1.623882-0.099317-2.413297-0.317404-26.19713-6.619419-53.292207-13.46614-80.010495-13.46614-123.548147 0-224.056826 85.087942-224.056826 189.670661 0 104.569408 100.508679 189.648135 224.056826 189.648135 121.202425 0 223.599149-86.848001 223.599149-189.648135 0-52.284704-32.788904-105.735614-92.32374-150.489641a9.94807 9.94807 0 0 1-3.522165-10.75182zM735.886861 388.45083c-12.227239 0-24.68178-12.594813-24.68178-24.958229 0-12.313245 12.454541-24.858912 24.68178-24.858912 19.686243 0 31.872526 12.903003 31.872526 24.858912 0 12.005055-12.186283 24.958229-31.872526 24.958229zM584.716336 388.45083c-12.327579 0-24.885533-12.594813-24.885533-24.958229 0-12.313245 12.558977-24.858912 24.885533-24.858912 19.581807 0 31.700514 12.903003 31.700513 24.858912 0 12.005055-12.118707 24.958229-31.700513 24.958229z"  horiz-adv-x="1024" />

    
    <glyph glyph-name="yingyouer" unicode="&#59672;" d="M507.93025195 912.73549027c-281.40312803 0-509.53044423-228.12498717-509.53044423-509.53044309s228.12731506-509.53044423 509.53044423-509.53044423c281.40662101 0 509.53160818 228.12615111 509.53160818 509.53044423 0 281.40545707-228.12498717 509.53044423-509.53160818 509.53044309z m0.40866702-214.26056078c46.39715783 0 83.96080925-37.35407843 83.96080925-83.4263973s-37.56714439-83.40194759-83.96080925-83.40194758c-46.36455709 0-84.0260096 37.32962759-84.0260096 83.40194758-0.00116395 46.07232 37.66028743 83.4263973 84.0260096 83.4263973zM288.50953444 214.41343943000004c-1.53337629 0.75912078 0.38421731 0.08150016 0.38421731 0.0815013l-0.38421731-0.0815013z m156.88643015-95.93441849l-79.39095097 81.95822137c-16.97891442 17.29793138-21.70478819 49.17749419-3.40207047 67.32186852 0.01979278 0.05937949 56.83156992 56.51371805 56.83156992 56.5137169l66.70944939-66.30078122-49.00168591-48.5499392 50.22536022-49.89004345c29.59987257-29.41242141-11.27736206-71.44230912-41.97167218-41.05304292z m53.07206087 153.98034887l-65.66158336 62.85796125c-6.19637874 5.90530446-4.17981895 10.74062222 4.44760633 10.74062222h140.87970247c8.60297557 0 10.7522651-4.94359666 4.7491584-11.00608171l-62.21759829-62.3235493c-6.01474845-6.05433401-15.99857778-6.16727097-22.19728555-0.26895246z m150.98228964-72.0221275l-79.39444395-81.95822137c-30.64308167-30.39275805-71.49004459 11.64062151-41.92742855 41.05304292l50.23234503 49.89237134-48.97840014 48.5499392 66.70944938 66.30078237s56.76986254-56.45666759 56.83389895-56.51604594c18.28758187-18.14437433 13.56869405-50.02160811-3.47542072-67.32186852z m16.74838471 151.51670044l-69.72846649 69.34541312v-64.03971982H419.3634907v63.68461028l-67.88771498-67.87258027c-30.69198222-30.47891627-72.29107997 8.60996153-41.53855545 39.09935673l112.49651712 111.86430407c9.02794354 8.98370105 19.03505977 14.727168 34.90323683 14.727168h100.84541554c15.82160555 0 26.51216213-5.54204501 35.88590251-14.727168l113.58280363-112.95059171c29.32044231-29.07826859-13.42199353-68.49198535-41.45239609-39.1307924z"  horiz-adv-x="1024" />

    
    <glyph glyph-name="fanhuijiantou" unicode="&#59018;" d="M874.667 341.333h-621.931l139.541-139.541c7.779-7.776 12.591-18.521 12.591-30.389 0-23.731-19.238-42.969-42.969-42.969-11.863 0-22.603 4.807-30.379 12.58l-212.651 212.651c-7.75 7.873-12.536 18.684-12.536 30.613s4.785 22.74 12.541 30.619l212.645 212.645c7.735 7.548 18.322 12.204 29.996 12.204 23.729 0 42.965-19.236 42.965-42.965 0-11.674-4.656-22.261-12.212-30.005l-140.13-140.109h622.528c23.564-0 42.667-19.103 42.667-42.667 0-23.564-19.103-42.667-42.667-42.667z"  horiz-adv-x="1024" />

    
    <glyph glyph-name="shezhi" unicode="&#58980;" d="M556.07-64h-88.14a63.79 63.79 0 0 0-59.25 39.8c-5.57 13.63-13.61 34.73-22.29 62.21q-15.35 5.58-30.2 12.52C330.62 37.24 310 28 296.43 22.3a63.81 63.81 0 0 0-70 13.75L164 98.39a63.79 63.79 0 0 0-13.75 70c5.7 13.58 14.94 34.21 28.23 59.78Q171.6 243 166 258.38c-27.47 8.68-48.58 16.72-62.21 22.29A63.79 63.79 0 0 0 64 339.92v88.16a63.79 63.79 0 0 0 39.8 59.25c13.63 5.57 34.74 13.62 62.22 22.29q5.58 15.36 12.51 30.19C165.24 565.38 156 586 150.3 599.57a63.79 63.79 0 0 0 13.75 70L226.39 732a63.79 63.79 0 0 0 70 13.75c13.58-5.7 34.19-14.94 59.76-28.23Q371 724.39 386.38 730c8.68 27.48 16.72 48.59 22.3 62.22A63.79 63.79 0 0 0 467.93 832h88.15a63.79 63.79 0 0 0 59.25-39.8c5.57-13.63 13.62-34.74 22.29-62.21q15.35-5.58 30.2-12.52C693.38 730.76 714 740 727.57 745.7a63.79 63.79 0 0 0 70-13.75L860 669.61a63.79 63.79 0 0 0 13.75-70c-5.7-13.58-14.94-34.19-28.23-59.76Q852.4 525 858 509.62c27.47-8.68 48.58-16.72 62.21-22.29A63.79 63.79 0 0 0 960 428.07v-88.15a63.79 63.79 0 0 0-39.8-59.25c-13.63-5.57-34.73-13.61-62.21-22.29q-5.58-15.35-12.52-30.2C858.76 202.62 868 182 873.7 168.43a63.79 63.79 0 0 0-13.75-70L797.61 36a63.79 63.79 0 0 0-70-13.75c-13.58 5.7-34.19 14.94-59.76 28.23Q653 43.6 637.62 38c-8.68-27.47-16.72-48.58-22.29-62.21A63.79 63.79 0 0 0 556.07-64zM355.69 118.5a32 32 0 0 0 14.91-3.68 302.81 302.81 0 0 1 51.07-21.18 32 32 0 0 0 21.18-21.45c9.75-32.81 19-57.35 25.07-72.16h88.16c6.07 14.84 15.34 39.39 25.08 72.19a32 32 0 0 0 21.18 21.45 302.81 302.81 0 0 1 51.07 21.18 32 32 0 0 0 30.16-0.18c30.1-16.32 54-27.12 68.77-33.32l62.36 62.32c-6.21 14.79-17 38.7-33.33 68.8a32 32 0 0 0-0.18 30.16 302.83 302.83 0 0 1 21.18 51.07 32 32 0 0 0 21.45 21.18c32.81 9.75 57.35 19 72.16 25.07v88.16c-14.84 6.07-39.38 15.34-72.19 25.08a32 32 0 0 0-21.45 21.18 302.83 302.83 0 0 1-21.18 51.07 32 32 0 0 0 0.18 30.16c16.32 30.1 27.12 54 33.31 68.77l-62.29 62.33c-14.79-6.2-38.7-17-68.8-33.33a32 32 0 0 0-30.16-0.18 302.81 302.81 0 0 1-51.07 21.18 32 32 0 0 0-21.18 21.45c-9.74 32.8-19 57.35-25.07 72.16h-88.16c-6-14.78-15.26-39.19-25-71.79a32 32 0 0 0-21.3-21.85 302.81 302.81 0 0 1-51.07-21.17 32 32 0 0 0-30.16 0.18c-30.1 16.32-54 27.12-68.77 33.31l-62.32-62.3c6.2-14.79 17-38.7 33.33-68.8a32 32 0 0 0 0.18-30.16 302.81 302.81 0 0 1-21.17-51.07 32 32 0 0 0-21.45-21.18c-32.81-9.74-57.35-19-72.17-25.07v-88.16c14.74-6 39-15.21 71.5-24.87a32.07 32.07 0 0 0 22.39-22.2 303.54 303.54 0 0 1 20.59-49.62 32 32 0 0 0-0.3-31.59c-16.07-29.71-26.73-53.33-32.87-68l62.33-62.37c14.79 6.2 38.7 17 68.8 33.33a32 32 0 0 0 15.23 3.9zM556.07-64h-88.14a63.79 63.79 0 0 0-59.25 39.8c-5.57 13.63-13.61 34.73-22.29 62.21q-15.35 5.58-30.2 12.52C330.62 37.24 310 28 296.43 22.3a63.81 63.81 0 0 0-70 13.75L164 98.39a63.79 63.79 0 0 0-13.75 70c5.7 13.58 14.94 34.21 28.23 59.78Q171.6 243 166 258.38c-27.47 8.68-48.58 16.72-62.21 22.29A63.79 63.79 0 0 0 64 339.92v88.16a63.79 63.79 0 0 0 39.8 59.25c13.63 5.57 34.74 13.62 62.22 22.29q5.58 15.36 12.51 30.19C165.24 565.38 156 586 150.3 599.57a63.79 63.79 0 0 0 13.75 70L226.39 732a63.79 63.79 0 0 0 70 13.75c13.58-5.7 34.19-14.94 59.76-28.23Q371 724.39 386.38 730c8.68 27.48 16.72 48.59 22.3 62.22A63.79 63.79 0 0 0 467.93 832h88.15a63.79 63.79 0 0 0 59.25-39.8c5.57-13.63 13.62-34.74 22.29-62.21q15.35-5.58 30.2-12.52C693.38 730.76 714 740 727.57 745.7a63.79 63.79 0 0 0 70-13.75L860 669.61a63.79 63.79 0 0 0 13.75-70c-5.7-13.58-14.94-34.19-28.23-59.76Q852.4 525 858 509.62c27.47-8.68 48.58-16.72 62.21-22.29A63.79 63.79 0 0 0 960 428.07v-88.15a63.79 63.79 0 0 0-39.8-59.25c-13.63-5.57-34.73-13.61-62.21-22.29q-5.58-15.35-12.52-30.2C858.76 202.62 868 182 873.7 168.43a63.79 63.79 0 0 0-13.75-70L797.61 36a63.79 63.79 0 0 0-70-13.75c-13.58 5.7-34.19 14.94-59.76 28.23Q653 43.6 637.62 38c-8.68-27.47-16.72-48.58-22.29-62.21A63.79 63.79 0 0 0 556.07-64zM355.69 118.5a32 32 0 0 0 14.91-3.68 302.81 302.81 0 0 1 51.07-21.18 32 32 0 0 0 21.18-21.45c9.75-32.81 19-57.35 25.07-72.16h88.16c6.07 14.84 15.34 39.39 25.08 72.19a32 32 0 0 0 21.18 21.45 302.81 302.81 0 0 1 51.07 21.18 32 32 0 0 0 30.16-0.18c30.1-16.32 54-27.12 68.77-33.32l62.36 62.32c-6.21 14.79-17 38.7-33.33 68.8a32 32 0 0 0-0.18 30.16 302.83 302.83 0 0 1 21.18 51.07 32 32 0 0 0 21.45 21.18c32.81 9.75 57.35 19 72.16 25.07v88.16c-14.84 6.07-39.38 15.34-72.19 25.08a32 32 0 0 0-21.45 21.18 302.83 302.83 0 0 1-21.18 51.07 32 32 0 0 0 0.18 30.16c16.32 30.1 27.12 54 33.31 68.77l-62.29 62.33c-14.79-6.2-38.7-17-68.8-33.33a32 32 0 0 0-30.16-0.18 302.81 302.81 0 0 1-51.07 21.18 32 32 0 0 0-21.18 21.45c-9.74 32.8-19 57.35-25.07 72.16h-88.16c-6-14.78-15.26-39.19-25-71.79a32 32 0 0 0-21.3-21.85 302.81 302.81 0 0 1-51.07-21.17 32 32 0 0 0-30.16 0.18c-30.1 16.32-54 27.12-68.77 33.31l-62.32-62.3c6.2-14.79 17-38.7 33.33-68.8a32 32 0 0 0 0.18-30.16 302.81 302.81 0 0 1-21.17-51.07 32 32 0 0 0-21.45-21.18c-32.81-9.74-57.35-19-72.17-25.07v-88.16c14.74-6 39-15.21 71.5-24.87a32.07 32.07 0 0 0 22.39-22.2 303.54 303.54 0 0 1 20.59-49.62 32 32 0 0 0-0.3-31.59c-16.07-29.71-26.73-53.33-32.87-68l62.33-62.37c14.79 6.2 38.7 17 68.8 33.33a32 32 0 0 0 15.23 3.9zM512 192c-105.87 0-192 86.13-192 192s86.13 192 192 192 192-86.13 192-192-86.13-192-192-192z m0 320a128 128 0 1 1 128-128 128.15 128.15 0 0 1-128 128z"  horiz-adv-x="1024" />

    
    <glyph glyph-name="kefurexian" unicode="&#59127;" d="M512.002558 832.02392c-247.438509 0-448.029036-200.583364-448.029036-448.024943 0-247.438509 200.591551-448.02085 448.029036-448.02085 247.436462 0 448.022896 200.583364 448.022897 448.02085 0 247.441579-200.586434 448.024943-448.022897 448.024943z m0-855.31923c-224.943169 0-407.297356 182.354188-407.297356 407.293263 0 224.945215 182.354188 407.299403 407.297356 407.299403 224.939075 0 407.291217-182.354188 407.291217-407.299403 0-224.939075-182.352141-407.293263-407.291217-407.293263z m103.393835 358.461092a70.165036 70.165036 0 0 1-3.01773 0.480954c-30.677697 4.229325-48.590672-8.700149-60.424184-17.24271-4.337795-3.13234-8.085142-5.838985-10.732436-6.472412-5.315052-1.270946-9.339716-1.853208-14.165627-0.969071-11.805884 2.157129-19.161409-5.223978-51.447743 40.137139-45.1145 67.124793-19.218714 66.25089-13.277398 75.188447 1.505283 2.270716 5.315052 4.862751 9.724479 7.879457 12.08013 8.202822 30.309306 20.61962 37.002752 51.046607 9.537214 43.3626-21.886473 115.00836-37.737486 133.658116-5.068436 5.960759-20.463054 24.108071-45.534056 28.695552-34.46086 6.304589-69.639057-15.420201-104.534821-64.568575-64.768119-91.202165-24.435529-235.646951 32.32522-317.723271 47.492664-68.627007 127.499859-126.933971 214.333529-142.822846 25.15696-4.598738 48.897663-3.922333 70.498634 2.015913 50.494021 13.858636 80.731696 34.314527 92.433203 62.513776 8.500605 20.578688 6.176676 42.98193-6.952343 66.641792-13.377682 24.112164-67.124793 73.970712-108.493993 81.541132z m71.956846-129.706108c-2.568499-6.227842-13.735839-22.121833-61.548798-35.264155-14.815427-4.066619-31.57002-4.437056-49.734728-1.112333-73.431429 13.437034-143.001925 64.023152-183.886078 123.135458-49.755194 71.924099-81.292468 194.460923-32.588209 263.082814 22.454408 31.624255 43.617403 48.26833 58.023508 45.635363 7.622608-1.396813 13.908778-7.950066 18.006096-12.756535 10.064216-11.843746 32.744775-68.474534 27.477818-92.494601-2.657526-12.082176-7.945973-15.681144-17.538445-22.199605-7.060813-4.792143-15.817244-10.750855-22.413475-20.690228-17.760502-26.696012-41.865503-45.690622 14.235212-129.155568 34.277688-48.179302 50.972928-53.722552 81.502246-59.310827 13.673417-2.496867 24.633027-0.649799 33.592072 1.50733 11.542894 2.797719 20.128433 9.015328 27.050076 14.000875 9.381671 6.78759 14.585183 10.522658 27.699876 8.685823 24.883737-4.553713 68.189032-44.499493 75.589582-57.81373 5.865591-10.578939 7.30129-18.594497 4.533247-25.250081z"  horiz-adv-x="1024" />

    
    <glyph glyph-name="baomu" unicode="&#58986;" d="M512 318.464c92.16 0 167.936 81.92 178.176 186.368-51.2 8.192-88.064 40.96-116.736 106.496-34.816-81.92-110.592-118.784-184.32-118.784-18.432 0-38.912 2.048-55.296 4.096 16.384-100.352 90.112-178.176 178.176-178.176zM512 896C229.376 896 0 666.624 0 384s229.376-512 512-512 512 229.376 512 512S794.624 896 512 896zM280.576 439.296c6.144 30.72 18.432 47.104 28.672 57.344 2.048 2.048 2.048 2.048 4.096 2.048 2.048 4.096 6.144 8.192 6.144 20.48v6.144 8.192c0 124.928 86.016 227.328 192.512 227.328s192.512-102.4 192.512-227.328v-14.336c0-8.192 2.048-12.288 4.096-16.384 12.288-6.144 30.72-20.48 38.912-63.488 10.24-49.152-18.432-100.352-24.576-108.544-18.432-24.576-36.864-34.816-57.344-34.816-34.816-2.048-51.2 2.048-69.632 32.768-51.2-30.72-114.688-30.72-167.936-2.048-18.432-28.672-34.816-32.768-67.584-30.72-20.48 2.048-38.912 10.24-57.344 34.816-4.096 8.192-32.768 59.392-22.528 108.544z m71.68-430.08c-4.096 18.432-45.056 63.488-106.496 92.16s-43.008 55.296-43.008 55.296c55.296 122.88 124.928 112.64 124.928 112.64 32.768-20.48 45.056-71.68 47.104-100.352 2.048-26.624-18.432-178.176-22.528-159.744z m81.92 282.624c8.192 0 30.72-53.248 73.728-53.248v-36.864h-71.68s-38.912 59.392-36.864 67.584c2.048 8.192 26.624 24.576 34.816 22.528z m143.36-284.672h-129.024c-22.528 0-38.912 18.432-38.912 38.912 0 22.528 18.432 38.912 38.912 38.912h129.024c22.528 0 38.912-18.432 38.912-38.912 0-20.48-16.384-38.912-38.912-38.912z m10.24 194.56h-71.68v36.864c45.056 0 65.536 53.248 73.728 53.248 8.192 0 32.768-14.336 34.816-22.528 2.048-8.192-36.864-67.584-36.864-67.584z m190.464-100.352c-61.44-28.672-102.4-75.776-106.496-92.16-4.096-18.432-24.576 133.12-22.528 159.744 2.048 26.624 14.336 77.824 47.104 100.352 0 0 69.632 10.24 124.928-112.64 0 0 18.432-26.624-43.008-55.296z"  horiz-adv-x="1024" />

    
    <glyph glyph-name="yanglao1" unicode="&#58984;" d="M512 896C229.376 896 0 666.624 0 384s229.376-512 512-512 512 229.376 512 512S794.624 896 512 896z m-8.192-200.704c10.24 20.48 28.672 38.912 59.392 38.912v2.048l-6.144 71.68h8.192v4.096c0-4.096 4.096-43.008 6.144-75.776 22.528 0 40.96-18.432 49.152-34.816 20.48 6.144 47.104 0 61.44-6.144 32.768-16.384 69.632-57.344 53.248-110.592-4.096-10.24-8.192-22.528-14.336-30.72-26.624-38.912-88.064-57.344-135.168-24.576-18.432 12.288-30.72 32.768-38.912 55.296 0 8.192-2.048 16.384-2.048 24.576-16.384 2.048-30.72 16.384-38.912 28.672-2.048 4.096-4.096 14.336-8.192 16.384l-61.44-16.384c0 2.048-2.048 6.144-2.048 8.192l63.488 16.384v6.144c-4.096 6.144 4.096 22.528 6.144 26.624z m235.52-735.232c-4.096-6.144-24.576-4.096-32.768-2.048-8.192 12.288-4.096 47.104-4.096 67.584v169.984c0 32.768 8.192 73.728-20.48 77.824-20.48-24.576-79.872-2.048-98.304 8.192-69.632 36.864-96.256 108.544-98.304 217.088-8.192-10.24-10.24-57.344-6.144-75.776l2.048-24.576c6.144-30.72 16.384-55.296 32.768-77.824 8.192-10.24 20.48-20.48 30.72-28.672l18.432-10.24v-28.672c2.048-14.336 2.048-28.672 4.096-40.96 4.096-20.48 6.144-40.96 12.288-61.44 2.048-8.192 10.24-22.528 8.192-28.672-14.336-8.192-61.44-16.384-83.968-18.432-4.096-40.96-8.192-104.448-28.672-131.072-6.144-8.192-16.384-18.432-32.768-16.384-57.344 12.288-30.72 98.304-22.528 147.456h-2.048c-10.24 4.096-30.72 6.144-40.96 10.24-32.768 12.288-59.392 30.72-75.776 57.344-20.48 30.72-28.672 94.208-16.384 141.312 20.48 90.112 51.2 178.176 114.688 225.28 14.336 10.24 30.72 20.48 47.104 26.624l26.624 6.144c26.624 0 43.008-4.096 57.344-14.336 32.768-26.624 22.528-104.448 40.96-145.408 12.288-30.72 34.816-59.392 65.536-71.68 12.288-4.096 26.624-4.096 36.864-10.24 6.144-4.096 12.288-14.336 16.384-16.384l12.288-4.096c14.336-6.144 26.624-16.384 30.72-30.72 8.192-18.432 6.144-47.104 6.144-71.68v-215.04c2.048-10.24 4.096-24.576 0-30.72z"  horiz-adv-x="1024" />

    
    <glyph glyph-name="gengduo" unicode="&#58895;" d="M863.308449 333.318707H592.744367c-24.904679 0-45.092819-20.18814-45.092819-45.094867v-270.562034c0-24.905703 20.18814-45.094867 45.092819-45.094867h270.565106c24.904679 0 45.093843 20.189164 45.093843 45.094867V288.22384c-0.001024 24.906727-20.190188 45.094867-45.094867 45.094867M848.277168 273.193583v-240.50152H607.775648V273.193583h240.50152zM933.795418 603.216165l-176.373583 176.373583c-16.23448 16.23448-42.556373 16.23448-58.78983 0l-176.373583-176.373583c-16.23448-16.23448-16.23448-42.556373 0-58.791877l176.373583-176.373584c16.23448-16.23448 42.556373-16.23448 58.78983 0l176.373583 176.373584c16.235504 16.235504 16.235504 42.557397 0 58.791877M884.802187 573.82125L728.025896 417.044959 571.250629 573.820226l156.777315 156.777315 156.774243-156.776291zM442.431558 754.196622H171.8685c-24.904679 0-45.094867-20.189164-45.094867-45.093843V438.538697c0-24.904679 20.189164-45.093843 45.094867-45.093842h270.563058c24.906727 0 45.094867 20.189164 45.094866 45.093842V709.102779c0 24.904679-20.18814 45.093843-45.094866 45.093843M427.400277 694.071498v-240.502544H186.899781V694.071498h240.500496zM442.431558 333.318707H171.8685c-24.904679 0-45.094867-20.18814-45.094867-45.094867v-270.562034c0-24.905703 20.189164-45.094867 45.094867-45.094867h270.563058c24.906727 0 45.094867 20.189164 45.094866 45.094867V288.22384c0 24.906727-20.18814 45.094867-45.094866 45.094867M427.400277 273.193583v-240.50152H186.899781V273.193583h240.500496z"  horiz-adv-x="1024" />

    
    <glyph glyph-name="dingwei" unicode="&#58998;" d="M128 508.8C128 297.6 512-128 512-128s384 425.6 384 643.2S729.6 896 512 896 128 726.4 128 508.8z m220.8 0C348.8 601.6 422.4 672 512 672s163.2-70.4 163.2-163.2-73.6-163.2-163.2-163.2c-89.6 3.2-163.2 73.6-163.2 163.2z"  horiz-adv-x="1024" />

    
    <glyph glyph-name="xitongxiaoxi" unicode="&#58899;" d="M510.4 885.8C234.4 885.8 10.6 662 10.6 385.8S234.4-114 510.4-114s499.8 223.8 499.8 499.8-223.6 500-499.8 500z m28.8-722.8c0-55.2-42.4-26.8-42.4-26.8l-183.4 154.4h-28.4c-17.6 0-31.8 14.4-31.8 32.4v129.4c0 17.8 14.2 32.4 31.8 32.4h33.8l177.8 151s42.4 28.8 42.4-27v-445.8z m63.4 165.2c49.4 45.8 0 107.8 0 107.8s12.4 38.6 31.8 27c49.4-36.8 53-118.6 0-161.6-23-11.8-41.4 14.2-31.8 26.8z m58.2-113.2c-15.8-6.2-37 22.4-21.2 37.8 106.8 91.6 105 175.2 0 264-20.2 20.6 14.2 44 21.2 37.8 139.6-62.8 145.6-272.2 0-339.6z"  horiz-adv-x="1024" />

    
    <glyph glyph-name="richangbaoji" unicode="&#58881;" d="M515.231 893.424c-278.642 0-504.523-225.884-504.523-504.523 0-278.642 225.884-504.523 504.523-504.523 278.641 0 504.522 225.884 504.522 504.523 0.001 278.641-225.883 504.523-504.522 504.523zM388.628 666.593l10.506 32.343 10.506-32.343h34.009l-27.514-19.99 10.508-32.342-27.51 19.99-27.513-19.99 10.508 32.342-27.512 19.99h34.007zM264.035 591.57l20.818 64.071 20.818-64.071h67.369l-54.501-39.598 20.818-64.071-54.502 39.597-54.502-39.597 20.819 64.071-54.502 39.598h67.369zM835.286 601.915l-229.398-242.15c27.316-40.227 39.47-87.762 36.372-134.513l-178.713 174.173c-8.386 8.173-21.807 8.002-29.981-0.387-8.173-8.386-8.002-21.808 0.386-29.98l198.935-193.886c-9.719-30.969-26.639-60.194-50.812-85.054l-71.507-73.535-3.237 2.137-47.111 40.047v94.224l-86.373-10.208-172.696 170.436 73.63 75.719c72.163 74.212 184.989 84.971 268.921 31.309l228.612 241.321c16.474 17.389 43.926 18.13 61.315 1.657s18.13-43.923 1.658-61.313z"  horiz-adv-x="1024" />

    
    <glyph glyph-name="gouwuche" unicode="&#58974;" d="M513.76 888.358C234.844 888.358 8.67 662.217 8.67 383.3s226.174-505.057 505.09-505.057 505.058 226.141 505.058 505.057S792.675 888.358 513.76 888.358zM376.52 124.667c-21.362 0-38.778 17.387-38.778 38.777 0 21.46 17.416 38.753 38.779 38.753 21.394 0 38.81-17.358 38.81-38.753 0.001-21.39-17.415-38.777-38.81-38.777z m237.116-10.911c-29.438 0-53.358 23.86-53.358 53.328 0 29.442 23.859 53.333 53.358 53.333 29.44 0 53.361-23.831 53.361-53.333-0.062-29.468-23.92-53.328-53.36-53.328z m236.902 472.042c0-15.074-13.04-27.283-29.193-27.283h-91.831L625.35 263.11c-4.006-12.178-15.72-19.577-27.99-18.65-0.74-0.061-1.51-0.125-2.343-0.125h-279.81c-15.69 0-28.422 12.208-28.422 27.282v8.54c0 15.045 12.73 27.25 28.421 27.25h258.941l13.78 39.18H267.983c-15.043 0-27.281 12.21-27.281 27.282v8.446c0 15.044 12.239 27.283 27.28 27.283h342.172l13.47 38.225H238.944c-15.075 0-27.283 12.236-27.283 27.278v8.385c0 15.137 12.208 27.282 27.283 27.282h406.967l32.77 92.942c3.575 10.942 13.5 18.003 24.384 18.681 1.386 0.183 2.834 0.338 4.313 0.338h113.967c16.154 0 29.193-12.24 29.193-27.283v-9.648z m0 0"  horiz-adv-x="1024" />

    
    <glyph glyph-name="tuding" unicode="&#58978;" d="M448-85.333333a64 42.666667 0 1 1 128 0 64 42.666667 0 1 1-128 0ZM554.666667 302.058667V-74.666667a10.666667 10.666667 0 0 0-10.666667-10.666666h-64a10.666667 10.666667 0 0 0-10.666667 10.666666V302.058667C324.650667 322.816 213.333333 446.912 213.333333 597.333333 213.333333 762.282667 347.050667 896 512 896s298.666667-133.717333 298.666667-298.666667c0-150.421333-111.317333-274.517333-256-295.274666zM512 597.333333m-85.333333 0a85.333333 85.333333 0 1 1 170.666666 0 85.333333 85.333333 0 1 1-170.666666 0Z"  horiz-adv-x="1024" />

    
    <glyph glyph-name="dot" unicode="&#58884;" d="M402.007 384c0-60.746 49.247-109.993 109.993-109.993s109.993 49.247 109.993 109.993c0 60.746-49.247 109.993-109.993 109.993-60.746 0-109.993-49.247-109.993-109.993z"  horiz-adv-x="1024" />

    
    <glyph glyph-name="SVG-" unicode="&#58990;" d="M837.76 421.12L704 55.04H320L186.24 421.12A69.76 69.76 0 0 0 128 493.44a69.12 69.12 0 0 0 64 72.96 69.12 69.12 0 0 0 64-72.96 80 80 0 0 0-11.52-41.6A124.16 124.16 0 0 1 352 384a132.48 132.48 0 0 1 123.52 109.44h4.48V576A74.88 74.88 0 0 0 448 640a69.12 69.12 0 0 0 64 72.96A69.12 69.12 0 0 0 576 640a74.88 74.88 0 0 0-32-64v-83.2h4.48A132.48 132.48 0 0 1 672 384a124.16 124.16 0 0 1 107.52 67.84 80 80 0 0 0-11.52 41.6 69.12 69.12 0 0 0 64 72.96 69.12 69.12 0 0 0 64-72.96 69.76 69.76 0 0 0-58.24-72.32z"  horiz-adv-x="1024" />

    
    <glyph glyph-name="fan" unicode="&#58985;" d="M512 896C228.072727 896 0 667.927273 0 384s228.072727-512 512-512 512 228.072727 512 512S795.927273 896 512 896z m-146.618182-274.618182c13.963636 0 27.927273-2.327273 41.890909-6.981818 18.618182 39.563636 60.509091 67.490909 107.054546 67.490909 46.545455 0 86.109091-27.927273 107.054545-67.490909 13.963636 4.654545 27.927273 6.981818 41.890909 6.981818 65.163636 0 118.690909-53.527273 118.690909-118.690909 0-16.290909-13.963636-30.254545-30.254545-30.254545-16.290909 0-11.636364 18.618182-11.636364 34.909091 0 32.581818-39.563636 67.490909-72.145454 67.490909-13.963636 0-37.236364-4.654545-48.872728-13.963637-9.309091-6.981818-18.618182-25.6-27.927272-20.945454-11.636364 4.654545-6.981818 25.6-6.981818 37.236363-2.327273 30.254545-39.563636 58.181818-69.818182 58.181819s-62.836364-27.927273-65.163637-58.181819c0-11.636364-2.327273-32.581818-11.636363-34.909091-9.309091-4.654545-20.945455 13.963636-27.927273 20.945455-11.636364 9.309091-27.927273 13.963636-41.890909 13.963636-32.581818 0-72.145455-41.890909-72.145455-74.472727 0-16.290909 0-30.254545-16.290909-30.254545h-11.636363c-16.290909 0-18.618182 13.963636-18.618182 30.254545-2.327273 65.163636 51.2 118.690909 116.363636 118.690909z m272.290909-474.763636c13.963636-2.327273 23.272727-13.963636 23.272728-27.927273 0-16.290909-13.963636-30.254545-30.254546-30.254545H393.309091c-16.290909 0-30.254545 13.963636-30.254546 30.254545 0 13.963636 9.309091 25.6 23.272728 27.927273-100.072727 46.545455-169.890909 148.945455-169.890909 267.636363 0 16.290909 13.963636 30.254545 30.254545 30.254546h530.618182c16.290909 0 30.254545-13.963636 30.254545-30.254546 0-118.690909-69.818182-218.763636-169.890909-267.636363z"  horiz-adv-x="1024" />

    
    <glyph glyph-name="zhongdiangong" unicode="&#58987;" d="M535.037079 852.867626c37.883196 18.429663 91.124445 35.835456 142.317954 10.238702 122.864421-63.479951 173.034059-378.831964 62.456081-479.171241-30.716105-27.644495-77.814133-36.859326-126.959902-17.405793-40.954807-34.811586-86.005095-67.575431-154.604396-69.623172-77.814133-2.04774-119.79281 45.050288-161.771487 81.909614-25.596754-29.692235-82.933484-38.907067-119.792811-7.167091-40.954807 34.811586-54.265119 105.458628-58.3606 152.556655C106.035476 702.358711 207.398623 890.750822 378.384942 895.870173c65.527691 2.04774 106.482498-20.477403 156.652137-43.002547z m-90.100575-158.699877c-47.098028-22.525144-118.76894-4.095481-156.652137-37.883196-26.620625-22.525144-35.835456-80.885744-29.692235-121.840551 7.167091-55.288989 48.121898-108.530238 81.909614-142.317954 22.525144-22.525144 58.3606-48.121898 92.148316-55.288989 108.530238-21.501274 220.132087 94.196056 231.394659 199.654683 12.286442 107.506368-50.169638 215.012736-149.485046 231.39466-21.501274-31.739975-32.763846-56.31286-69.623171-73.718653zM350.740448 636.831019c58.3606 18.429663 59.38447-72.694782 7.167091-67.575431-31.739975 3.071611-43.002547 56.31286-7.167091 67.575431zM547.323521 636.831019c60.40834 19.453533 56.31286-65.527691 15.358053-67.575431-34.811586-2.04774-54.265119 54.265119-15.358053 67.575431zM537.084819 477.107272c13.310312-76.790263-155.628266-80.885744-154.604396-5.11935 30.716105 15.358053 48.121898-31.739975 99.315407-17.405793 19.453533 5.119351 29.692235 29.692235 55.288989 22.525143zM230.947637 262.094536h5.119351v-376.784224H71.22389c22.525144 100.339277 11.262572 229.346919 50.169639 302.041701 20.477403 38.907067 65.527691 58.3606 109.554108 74.742523zM543.22804 84.964996c10.238702 74.742523 57.33673 138.222473 120.816681 172.010189v5.119351h-99.315407c-33.787716-11.262572-45.050288-96.243796-87.028965-95.219926-40.954807 1.02387-56.31286 84.981224-97.267666 95.219926-30.716105 7.167091-55.288989-5.119351-97.267667 0-6.143221-54.265119-1.02387-118.76894-2.04774-177.12954h262.110764zM853.460703 80.869515h-1.02387c-1.02387 0-1.02387 0-75.766393-22.525143v58.360599c0 8.190961-6.143221 14.334182-14.334183 14.334183-8.190961 0-14.334182-6.143221-14.334182-14.334183v-73.718652c0-3.071611 1.02387-7.167091 3.07161-11.262572 2.04774-2.04774 4.095481-4.095481 8.190962-5.119351 2.04774-1.02387 4.095481-1.02387 6.143221-1.02387h3.07161c1.02387 0 2.04774 0 88.052835 26.620624l3.071611 1.023871c7.167091 2.04774 11.262572 10.238702 9.214831 17.405793-3.071611 6.143221-8.190961 10.238702-15.358052 10.238701zM771.551089 233.426171c-99.315407 0-180.20115-80.885744-180.201151-180.20115S672.235682-128 771.551089-128 951.752239-47.114256 951.752239 52.20115s-79.861874 181.225021-180.20115 181.225021z m0-321.495234c-76.790263 0-140.270214 62.456081-140.270214 140.270213 0 76.790263 62.456081 140.270214 140.270214 140.270214 76.790263 0 140.270214-62.456081 140.270214-140.270214 0-76.790263-62.456081-140.270214-140.270214-140.270213z"  horiz-adv-x="1024" />

    
    <glyph glyph-name="fenxiang" unicode="&#58916;" d="M972.8 346.0864v-294.7584A128.0768 128.0768 0 0 0 844.8-76.8H179.2a128 128 0 0 0-128 128V716.8c0 70.7328 57.1904 128 127.872 128h202.3168a25.6 25.6 0 0 1 0 51.2H179.072A179.072 179.072 0 0 1 0 716.8v-665.6a179.2 179.2 0 0 1 179.2-179.2h665.6c98.944 0 179.2 80.2816 179.2 179.328V346.0864a25.6 25.6 0 0 1-51.2 0zM960 768c-353.4592 0-640-286.5408-640-640a25.6 25.6 0 0 1 51.2 0c0 325.1968 263.6032 588.8 588.8 588.8a25.6 25.6 0 0 1 0 51.2zM720.1024 833.8432l256-102.4a25.6 25.6 0 0 1 18.9952 47.5136l-256 102.4a25.6 25.6 0 0 1-18.9952-47.5136zM808.8064 547.5328l194.6368 189.312a25.6 25.6 0 1 1-35.6864 36.7104L773.12 584.2432a25.6 25.6 0 1 1 35.6864-36.7104z"  horiz-adv-x="1024" />

    
    <glyph glyph-name="fanhui" unicode="&#58917;" d="M710.153924 887.019603L266.007127 435.307476a81.118646 81.118646 0 0 1 0.861532-114.476097l446.192936-441.050666a26.922883 26.922883 0 0 1 37.853573 38.284339L304.722232 359.115718a27.27288 27.27288 0 0 0-0.323074 38.445877L748.545955 849.273722A26.922883 26.922883 0 1 1 710.180847 886.99268z"  horiz-adv-x="1024" />

    
    <glyph glyph-name="guanbi" unicode="&#58918;" d="M512 439.689846L94.247385 857.442462a39.542154 39.542154 0 0 1-55.689847 0 39.266462 39.266462 0 0 1 0-55.689847L456.310154 384 38.557538-33.752615a39.542154 39.542154 0 0 1 0-55.689847 39.266462 39.266462 0 0 1 55.689847 0L512 328.310154l417.752615-417.752616c15.163077-15.163077 40.290462-15.36 55.689847 0a39.266462 39.266462 0 0 1 0 55.689847L567.689846 384 985.442462 801.752615a39.542154 39.542154 0 0 1 0 55.689847 39.266462 39.266462 0 0 1-55.689847 0L512 439.689846z"  horiz-adv-x="1024" />

    
    <glyph glyph-name="bofang" unicode="&#58919;" d="M512 896C230.4 896 0 665.6 0 384s230.4-512 512-512 512 230.4 512 512S793.6 896 512 896z m0-981.333333C253.866667-85.333333 42.666667 125.866667 42.666667 384S253.866667 853.333333 512 853.333333s469.333333-211.2 469.333333-469.333333-211.2-469.333333-469.333333-469.333333zM672 454.4l-170.666667 113.066667c-57.6 38.4-106.666667 12.8-106.666666-57.6v-256c0-70.4 46.933333-96 106.666666-57.6l170.666667 113.066666c57.6 42.666667 57.6 106.666667 0 145.066667z"  horiz-adv-x="1024" />

    
    <glyph glyph-name="kefu" unicode="&#58920;" d="M55.351351 342.597189v-110.924108a83.027027 83.027027 0 0 1 166.054054 0v110.924108a83.027027 83.027027 0 0 1-166.054054 0z m763.101406-211.552865A137.852541 137.852541 0 0 0 774.918919 231.673081v110.924108A138.378378 138.378378 0 0 0 912.328649 480.864865C898.131027 681.928649 730.499459 840.648649 525.837838 840.648649 321.148541 840.648649 153.544649 681.928649 139.347027 480.864865A138.461405 138.461405 0 0 0 276.756757 342.597189v-110.924108a138.378378 138.378378 0 0 0-276.756757 0v110.924108a138.378378 138.378378 0 0 0 83.303784 126.865297C91.883243 706.476973 286.72 896 525.837838 896s433.954595-189.523027 442.534054-426.537514A138.461405 138.461405 0 0 0 1051.675676 342.597189v-110.924108a138.378378 138.378378 0 0 0-184.790487-130.269405 470.763243 470.763243 0 0 0-188.858811-121.21946A96.809514 96.809514 0 0 0 580.912432-114.162162h-82.528864c-53.690811 0-97.113946 43.174054-97.113946 96.864865 0 53.607784 43.284757 96.864865 97.141621 96.864865h82.473514c34.954378 0 65.536-18.265946 82.639567-45.803244a415.273514 415.273514 0 0 1 154.900757 97.28zM830.27027 342.597189v-110.924108a83.027027 83.027027 0 0 1 166.054054 0v110.924108a83.027027 83.027027 0 0 1-166.054054 0zM498.438919-58.810811h82.473513c23.302919 0 41.79027 18.487351 41.790271 41.513514 0 23.053838-18.570378 41.513514-41.790271 41.513513h-82.473513c-23.302919 0-41.79027-18.487351-41.79027-41.513513 0-23.053838 18.570378-41.513514 41.79027-41.513514z"  horiz-adv-x="1051" />

    
    <glyph glyph-name="shenfenzheng" unicode="&#58921;" d="M768 167.384615v7.876923 11.815385c-11.815385 110.276923-122.092308 196.923077-256 196.923077s-244.184615-86.646154-256-192.984615v-23.63077c0-43.323077 35.446154-78.769231 78.769231-78.76923h354.461538c43.323077 0 78.769231 35.446154 78.769231 78.76923zM512-128C228.430769-128 0 100.430769 0 384S228.430769 896 512 896s512-228.430769 512-512-228.430769-512-512-512z m0 555.323077c94.523077 0 169.353846 74.830769 169.353846 169.353846S606.523077 769.969231 512 769.969231s-169.353846-78.769231-169.353846-173.292308 74.830769-169.353846 169.353846-169.353846z"  horiz-adv-x="1024" />

    
    <glyph glyph-name="quanping" unicode="&#58922;" d="M843.1616 827.733333H989.866667a170.666667 170.666667 0 0 0 170.666666-170.666666v-152.8832a34.133333 34.133333 0 1 1 68.266667 0V657.066667a238.933333 238.933333 0 0 1-238.933333 238.933333h-146.705067a34.133333 34.133333 0 0 1 0-68.266667zM1160.533333 266.6496V110.933333a170.666667 170.666667 0 0 0-170.666666-170.666666h-123.5968a34.133333 34.133333 0 0 1 0-68.266667H989.866667a238.933333 238.933333 0 0 1 238.933333 238.933333v155.716267a34.133333 34.133333 0 1 1-68.266667 0zM393.4208-59.733333H238.933333a170.666667 170.666667 0 0 0-170.666666 170.666666v155.136a34.133333 34.133333 0 0 1-68.266667 0V110.933333a238.933333 238.933333 0 0 1 238.933333-238.933333h154.487467a34.133333 34.133333 0 0 1 0 68.266667zM68.266667 502.954667V657.066667a170.666667 170.666667 0 0 0 170.666666 170.666666h147.933867a34.133333 34.133333 0 0 1 0 68.266667H238.933333a238.933333 238.933333 0 0 1-238.933333-238.933333v-154.112a34.133333 34.133333 0 1 1 68.266667 0z"  horiz-adv-x="1228" />

    
    <glyph glyph-name="duigou" unicode="&#58923;" d="M512 896C228.430769 896 0 667.569231 0 384s228.430769-512 512-512 512 228.430769 512 512S795.569231 896 512 896z m0-945.230769C271.753846-49.230769 78.769231 143.753846 78.769231 384S271.753846 817.230769 512 817.230769s433.230769-192.984615 433.230769-433.230769-192.984615-433.230769-433.230769-433.230769zM716.8 565.169231l-208.738462-248.123077c-15.753846-15.753846-43.323077-19.692308-59.076923-7.876923L299.323077 423.384615c-15.753846 11.815385-43.323077 7.876923-55.138462-7.876923-11.815385-15.753846-7.876923-43.323077 7.876923-55.138461l149.661539-114.215385c19.692308-15.753846 47.261538-23.630769 74.830769-23.630769 35.446154 0 70.892308 15.753846 94.523077 43.323077l208.738462 248.123077c15.753846 15.753846 11.815385 43.323077-3.938462 55.138461-19.692308 15.753846-43.323077 15.753846-59.076923-3.938461z"  horiz-adv-x="1024" />

    
    <glyph glyph-name="shuoming" unicode="&#58924;" d="M481.834667 350.165333A42.538667 42.538667 0 0 0 512 362.666667a128 128 0 1 1-128 128 42.666667 42.666667 0 0 0-85.333333 0 213.333333 213.333333 0 1 0 256-209.066667v-46.933333a42.666667 42.666667 0 0 0-85.333334 0v85.333333c0 11.776 4.778667 22.442667 12.501334 30.165333zM512-128C229.248-128 0 101.248 0 384S229.248 896 512 896s512-229.248 512-512-229.248-512-512-512z m0 85.333333c235.648 0 426.666667 191.018667 426.666667 426.666667S747.648 810.666667 512 810.666667 85.333333 619.648 85.333333 384s191.018667-426.666667 426.666667-426.666667z m0 106.666667a42.666667 42.666667 0 1 0 0 85.333333 42.666667 42.666667 0 0 0 0-85.333333z"  horiz-adv-x="1024" />

    
    <glyph glyph-name="zanting" unicode="&#58925;" d="M512-128C228.266667-128 0 100.266667 0 384S228.266667 896 512 896s512-228.266667 512-512-228.266667-512-512-512z m0 42.666667c260.266667 0 469.333333 209.066667 469.333333 469.333333S772.266667 853.333333 512 853.333333 42.666667 644.266667 42.666667 384s209.066667-469.333333 469.333333-469.333333z m-106.666667 682.666666c12.8 0 21.333333-8.533333 21.333334-21.333333v-384c0-12.8-8.533333-21.333333-21.333334-21.333333s-21.333333 8.533333-21.333333 21.333333V576c0 12.8 8.533333 21.333333 21.333333 21.333333z m213.333334 0c12.8 0 21.333333-8.533333 21.333333-21.333333v-384c0-12.8-8.533333-21.333333-21.333333-21.333333s-21.333333 8.533333-21.333334 21.333333V576c0 12.8 8.533333 21.333333 21.333334 21.333333z"  horiz-adv-x="1024" />

    
    <glyph glyph-name="shoucang" unicode="&#58926;" d="M142.31918 355.732873l350.13559-373.653781c54.296613-63.852817 139.806023-63.883844 195.033436 1.054906l362.204951 388.670672c42.661625 48.866952 65.466202 112.130263 65.466203 182.902021a279.239726 279.239726 0 0 1-501.018122 169.653647 30.99561 30.99561 0 0 0-25.534922-12.131415 30.99561 30.99561 0 0 0-25.503895 12.131415A279.239726 279.239726 0 0 1 62.053272 554.706691c0-72.850542 28.792718-144.242832 77.411458-195.498835 1.054906-1.116959 1.985705-2.264944 2.85445-3.474983z m-54.606879-31.926409A349.732244 349.732244 0 0 0 0 554.706691C0 743.193506 152.806184 895.99969 341.292999 895.99969c95.065613 0 183.708713-39.155615 247.313317-106.111096A340.486306 340.486306 0 0 0 835.95066 895.99969c188.486815 0 341.292999-152.806184 341.292999-341.292999 0-80.793361-25.069522-154.636755-72.198982-213.463257-1.147986-1.923651-2.482131-3.754223-4.095516-5.491715l-5.181449-5.553768c-2.699317-3.071637-5.491715-6.112247-8.315138-9.090804-0.620533-0.620533-1.210039-1.241065-1.861598-1.799545L733.810974-58.069375c-79.055869-93.048882-209.553901-93.017855-287.616918-1.147985L90.783938 319.959161a31.243823 31.243823 0 0 0-3.102664 3.847303z"  horiz-adv-x="1179" />

    
    <glyph glyph-name="jiantoushang" unicode="&#58927;" d="M910.222222 99.555556c-17.066667 0-34.133333 5.688889-45.511111 17.066666L551.822222 486.4c-11.377778 5.688889-17.066667 11.377778-34.133333 11.377778-5.688889 0-22.755556-5.688889-28.444445-11.377778l-329.955555-364.088889c-22.755556-22.755556-56.888889-22.755556-79.644445-5.688889-22.755556 22.755556-22.755556 56.888889-5.688888 79.644445l329.955555 364.088889c28.444444 34.133333 73.955556 51.2 119.466667 51.2s85.333333-22.755556 119.466666-56.888889l312.888889-364.088889c22.755556-22.755556 17.066667-56.888889-5.688889-79.644445-11.377778-5.688889-28.444444-11.377778-39.822222-11.377777z"  horiz-adv-x="1024" />

    
    <glyph glyph-name="jiantoushang1" unicode="&#58928;" d="M910.222222 99.555556c-17.066667 0-34.133333 5.688889-45.511111 17.066666L551.822222 486.4c-11.377778 5.688889-17.066667 11.377778-34.133333 11.377778-5.688889 0-22.755556-5.688889-28.444445-11.377778l-329.955555-364.088889c-22.755556-22.755556-56.888889-22.755556-79.644445-5.688889-22.755556 22.755556-22.755556 56.888889-5.688888 79.644445l329.955555 364.088889c28.444444 34.133333 73.955556 51.2 119.466667 51.2s85.333333-22.755556 119.466666-56.888889l312.888889-364.088889c22.755556-22.755556 17.066667-56.888889-5.688889-79.644445-11.377778-5.688889-28.444444-11.377778-39.822222-11.377777z"  horiz-adv-x="1024" />

    
    <glyph glyph-name="jiantouyou" unicode="&#58929;" d="M312.888889-99.555556c-17.066667 0-28.444444 5.688889-39.822222 17.066667-22.755556 22.755556-17.066667 56.888889 5.688889 79.644445l364.088888 329.955555c11.377778 11.377778 17.066667 22.755556 17.066667 34.133333 0 11.377778-5.688889 22.755556-17.066667 34.133334L273.066667 708.266667c-22.755556 22.755556-28.444444 56.888889-5.688889 79.644444 22.755556 22.755556 56.888889 28.444444 79.644444 5.688889l364.088889-312.888889c34.133333-28.444444 56.888889-73.955556 56.888889-119.466667s-17.066667-85.333333-51.2-119.466666l-364.088889-329.955556c-11.377778-5.688889-28.444444-11.377778-39.822222-11.377778z"  horiz-adv-x="1024" />

    
    </font>
</defs>
</svg>
